<?xml version="1.0" standalone="no"?>
<!DOCTYPE svg PUBLIC "-//W3C//DTD SVG 1.1//EN" "http://www.w3.org/Graphics/SVG/1.1/DTD/svg11.dtd" >
<svg xmlns="http://www.w3.org/2000/svg">
<metadata>Generated by IcoMoon</metadata>
<defs>
<font id="lego-icons" horiz-adv-x="512">
<font-face units-per-em="512" ascent="480" descent="-32" />
<missing-glyph horiz-adv-x="512" />
<glyph unicode="&#x20;" d="" horiz-adv-x="256" />
<glyph unicode="&#xe000;" d="M146.286 123.428v-54.858q0-11.428-8-19.428t-19.428-8h-91.428q-11.428 0-19.428 8t-8 19.428v54.858q0 11.428 8 19.428t19.428 8h91.428q11.428 0 19.428-8t8-19.428zM146.286 269.714v-54.858q0-11.428-8-19.428t-19.428-8h-91.428q-11.428 0-19.428 8t-8 19.428v54.858q0 11.428 8 19.428t19.428 8h91.428q11.428 0 19.428-8t8-19.428zM329.142 123.428v-54.858q0-11.428-8-19.428t-19.428-8h-91.428q-11.428 0-19.428 8t-8 19.428v54.858q0 11.428 8 19.428t19.428 8h91.428q11.428 0 19.428-8t8-19.428zM146.286 416v-54.858q0-11.428-8-19.428t-19.428-8h-91.428q-11.428 0-19.428 8t-8 19.428v54.858q0 11.428 8 19.428t19.428 8h91.428q11.428 0 19.428-8t8-19.428zM329.142 269.714v-54.858q0-11.428-8-19.428t-19.428-8h-91.428q-11.428 0-19.428 8t-8 19.428v54.858q0 11.428 8 19.428t19.428 8h91.428q11.428 0 19.428-8t8-19.428zM512 123.428v-54.858q0-11.428-8-19.428t-19.428-8h-91.428q-11.428 0-19.428 8t-8 19.428v54.858q0 11.428 8 19.428t19.428 8h91.428q11.428 0 19.428-8t8-19.428zM329.142 416v-54.858q0-11.428-8-19.428t-19.428-8h-91.428q-11.428 0-19.428 8t-8 19.428v54.858q0 11.428 8 19.428t19.428 8h91.428q11.428 0 19.428-8t8-19.428zM512 269.714v-54.858q0-11.428-8-19.428t-19.428-8h-91.428q-11.428 0-19.428 8t-8 19.428v54.858q0 11.428 8 19.428t19.428 8h91.428q11.428 0 19.428-8t8-19.428zM512 416v-54.858q0-11.428-8-19.428t-19.428-8h-91.428q-11.428 0-19.428 8t-8 19.428v54.858q0 11.428 8 19.428t19.428 8h91.428q11.428 0 19.428-8t8-19.428z" />
<glyph unicode="&#xe001;" d="M438.858 96v-36.572q0-7.428-5.428-12.858t-12.858-5.428h-402.286q-7.428 0-12.857 5.428t-5.428 12.858v36.572q0 7.428 5.428 12.858t12.857 5.428h402.286q7.428 0 12.858-5.428t5.428-12.858zM438.858 242.286v-36.572q0-7.428-5.428-12.858t-12.858-5.428h-402.286q-7.428 0-12.857 5.428t-5.428 12.858v36.572q0 7.428 5.428 12.857t12.857 5.429h402.286q7.428 0 12.858-5.428t5.428-12.857zM438.858 388.572v-36.572q0-7.428-5.428-12.857t-12.858-5.429h-402.286q-7.428 0-12.857 5.428t-5.428 12.858v36.571q0 7.429 5.428 12.858t12.857 5.428h402.286q7.428 0 12.858-5.428t5.428-12.858z" horiz-adv-x="439" />
<glyph unicode="&#xe002;" d="M417.389 309.199v99.255c0 9.423-5.144 16.798-16.262 16.798h-34.353c-10.923 0-15.238-8.887-15.031-16.615v-49.322l-83.565 63.817c-6.449 5.449-17.31 5.632-24.478 0l-241.127-184.076c0 0-10.057-13.873 9.667-38.826 18.81-23.784 57.478-13.349 57.478-13.349v-218.88h129.743v147.139c0 9.033 5.523 16.214 17.213 16.214h78.239c11.74 0 17.774-7.363 17.53-17.176v-146.176h129.78v218.807c0 0 41.521-10.411 59.611 15.616 17.103 24.637 7.497 36.608 7.497 36.608l-91.94 70.168z" />
<glyph unicode="&#xe003;" d="M329.142 242.286q0 52.858-37.572 90.428t-90.428 37.572-90.428-37.572-37.572-90.428 37.572-90.428 90.428-37.572 90.428 37.572 37.572 90.428zM475.428 4.572q0-14.858-10.858-25.714t-25.714-10.858q-15.428 0-25.714 10.858l-98 97.714q-51.142-35.428-114-35.428-40.858 0-78.142 15.858t-64.286 42.858-42.858 64.286-15.857 78.142 15.857 78.142 42.858 64.286 64.286 42.858 78.142 15.858 78.142-15.858 64.286-42.858 42.858-64.286 15.858-78.142q0-62.858-35.428-114l98-98q10.572-10.572 10.572-25.714z" horiz-adv-x="476" />
<glyph unicode="&#xe004;" d="M506.721 366.738c-4.559 5.779-11.508 9.155-18.858 9.155h-340.48l-8.363 34.389c-2.036 8.362-8.387 14.982-16.628 17.383l-14.531 4.218c-0.378 0.11-0.793 0.219-1.195 0.341l-44.52 12.995c-4.486 1.305-9.045 1.95-13.617 1.95-21.443 0-40.618-14.385-46.641-35.011-7.29-25.161 7.143-52.029 32.207-59.94 0.158-0.049 0.317-0.086 0.487-0.147l19.858-5.79 48.774-205.885-16.762-45.641c-0.999-2.731-1.499-5.644-1.463-8.558l0.341-26.978c0.061-4.742 1.499-9.155 3.938-12.861 2.073-43.569 38.18-78.361 82.237-78.361 40.362 0 74.033 29.184 81.030 67.56h31.719c6.998-38.375 40.655-67.56 81.043-67.56 42.594 0 77.751 32.5 81.945 74.020 14.567 8.399 24.466 24.198 24.466 42.118 0 13.995-6.010 26.721-15.519 35.633l54.991 226.487c1.719 7.156 0.073 14.714-4.462 20.48zM425.972 124.769h-257.975l-11.35-24.173 266.911-0.036c8.863-0.195 16.006-7.485 16.006-16.421 0-8.985-7.217-16.286-16.14-16.445l-0.463-0.024h-10.569c2.072-5.522 3.133-11.386 3.133-17.322 0-27.709-22.54-50.249-50.225-50.249-27.709 0-50.249 22.54-50.249 50.249 0 5.937 1.073 11.8 3.133 17.322h-99.548c2.060-5.522 3.133-11.386 3.133-17.322 0-27.709-22.565-50.249-50.261-50.249s-50.225 22.54-50.225 50.249c0 5.937 1.061 11.8 3.121 17.322h-7.070l-0.207 17.433 19.566 53.284-55.308 233.472-37.791 11.044c-8.497 2.682-13.361 11.678-10.849 20.273 2.036 7.010 8.534 11.898 15.799 11.898 1.548 0 3.108-0.231 4.608-0.659l2.999-0.89 41.74-12.179c0.5-0.159 1.146-0.341 1.841-0.609l0.012 0.061 9.18-2.657 2.243-9.252 10.972-45.117h355.389l-51.553-219.002zM437.455 312.332h-81.274v-65.365h65.414l15.86 65.365zM366.86 257.609v44.056h57.051l-10.679-44.056h-46.373zM417.097 228.401h-60.916v-65.365h45.031l15.884 65.365zM366.86 173.702v44.044h36.681l-10.703-44.044h-25.978zM337.639 312.332h-91.124v-65.365h91.124v65.365zM326.973 257.609h-69.803v44.056h69.803v-44.056zM337.639 228.401h-91.124v-65.365h91.124v65.365zM326.973 173.702h-69.803v44.044h69.803v-44.044zM227.95 246.954v65.365h-98.401l15.238-65.365h83.163zM217.283 301.666v-44.056h-64.037l-10.276 44.056h74.313zM164.364 163.036h63.573v65.365h-78.823l15.25-65.365zM217.283 173.702h-44.458l-10.264 44.044h54.735v-44.044zM171.508 33.024c9.558 0 17.347 7.777 17.347 17.335 0 4.62-1.804 8.96-5.083 12.227-3.279 3.303-7.619 5.096-12.251 5.096-9.545 0-17.322-7.753-17.322-17.322-0.012-9.558 7.778-17.335 17.31-17.335zM365.3 33.024c9.545 0 17.31 7.777 17.31 17.335 0 4.62-1.78 8.96-5.059 12.227-3.291 3.303-7.631 5.096-12.252 5.096-4.632 0-8.96-1.78-12.252-5.096-3.291-3.267-5.096-7.607-5.096-12.227 0-9.558 7.802-17.335 17.347-17.335z" />
<glyph unicode="&#xe005;" d="M449.243 83.286l-0.256 0.024h-306.017l13.007 35.523h296.070l59.161 243.565h-407.869l-12.593 51.736-2.56 10.63-10.545 3.047v-0.073c-0.817 0.305-1.548 0.548-2.109 0.695l-51.37 14.995c-1.706 0.524-3.498 0.768-5.267 0.768-8.338 0-15.811-5.607-18.151-13.641-2.865-9.826 2.719-20.175 12.471-23.247l43.361-12.678 63.464-267.935-22.455-61.135 0.256-20.017h8.131c-2.365-6.351-3.596-13.056-3.596-19.882 0-31.793 25.868-57.661 57.661-57.661s57.661 25.868 57.661 57.661c0 6.827-1.231 13.531-3.596 19.882h114.249c-2.353-6.351-3.596-13.056-3.596-19.882 0-31.793 25.868-57.661 57.685-57.661 31.781 0 57.649 25.868 57.649 57.661 0 6.827-1.243 13.531-3.596 19.882h12.093l0.561 0.024c10.216 0.147 18.541 8.546 18.541 18.871-0.073 10.24-8.253 18.603-18.444 18.846zM377.222 315.77h82.761l-18.237-59.245h-64.524v59.245zM377.222 224.719h59.356l-18.2-59.245h-41.155v59.245zM251.343 315.77h94.061v-59.245h-94.061v59.245zM251.343 224.719h94.061v-59.245h-94.061v59.245zM117.114 315.77h102.412v-59.245h-84.931l-17.481 59.245zM219.526 224.719v-59.245h-62.464l-17.494 59.245h79.958zM160.012 5.779c-10.959 0-19.87 8.923-19.87 19.895 0 10.947 8.911 19.882 19.87 19.882 5.315 0 10.301-2.072 14.068-5.851 3.755-3.743 5.827-8.728 5.827-14.019 0-10.983-8.923-19.907-19.895-19.907zM382.403 5.779c-10.959 0-19.895 8.923-19.895 19.895 0 5.303 2.060 10.289 5.839 14.019 3.755 3.791 8.765 5.851 14.055 5.851s10.276-2.072 14.043-5.851c3.767-3.743 5.827-8.728 5.827-14.019 0-10.971-8.911-19.895-19.87-19.895z" />
<glyph unicode="&#xe010;" d="M9.838 236.069c24.881-71.887 92.697-120.198 168.716-120.198 19.858 0 39.497 3.316 58.405 9.875 4.669 1.597 9.191 3.425 13.654 5.388 0.78-11.581 5.827-22.882 15.067-31.269l124.233-112.859c8.57-7.789 19.663-12.068 31.244-12.068 13.129 0 25.673 5.571 34.462 15.287l44.385 49.043c17.177 18.981 15.738 48.433-3.219 65.646l-124.233 112.884c-7.692 6.961-17.384 11.106-27.66 11.886 15.469 39.473 16.421 82.7 2.389 123.209-24.881 71.887-92.672 120.186-168.716 120.198-19.858 0-39.497-3.328-58.404-9.862-93.013-32.219-142.531-134.095-110.324-227.157zM286.038 144.189l44.373 49.018c2.901 3.194 6.887 4.815 10.911 4.815 3.511 0 7.058-1.268 9.862-3.791l124.233-112.86c5.961-5.437 6.412-14.787 1.012-20.772l-44.385-49.043c-2.889-3.194-6.875-4.827-10.899-4.827-3.511 0-7.058 1.268-9.85 3.815l-124.257 112.86c-5.961 5.425-6.412 14.787-1 20.785zM130.572 433.152c15.543 5.376 31.72 8.107 48.006 8.107 62.501 0 118.211-39.705 138.667-98.792 12.825-37.047 10.447-76.849-6.692-112.116-17.115-35.243-46.957-61.721-84.005-74.569-15.567-5.364-31.72-8.082-48.006-8.082-62.501 0-118.211 39.68-138.667 98.791-26.441 76.459 14.227 160.195 90.697 186.661zM77.702 343.479c-13.081-26.953-14.921-57.381-5.108-85.675 15.616-45.166 58.185-75.483 105.947-75.483 12.447 0 24.783 2.072 36.669 6.193 28.331 9.801 51.115 30.038 64.219 56.966 13.068 26.953 14.909 57.38 5.096 85.674-15.616 45.154-58.185 75.496-105.947 75.496-12.447 0-24.783-2.084-36.669-6.205-28.319-9.789-51.127-30.013-64.207-56.966zM89.966 337.542c11.484 23.661 31.537 41.435 56.381 50.029 10.459 3.62 21.297 5.449 32.231 5.449 41.959 0 79.36-26.648 93.087-66.316 8.606-24.868 7.010-51.603-4.474-75.276-11.495-23.674-31.524-41.423-56.393-50.029-10.471-3.645-21.309-5.462-32.244-5.462-41.935 0-79.335 26.649-93.075 66.329-8.594 24.844-6.998 51.578 4.486 75.276z" />
<glyph unicode="&#xe020;" d="M487.291 192.113c-7.921 9.825-20.055 16.527-33.305 16.527h-55.613c-8.070 0-16.65-2.334-24.412-6.466-14.137 26.379-73.856 118.267-79.15 126.377-4.404 7.47-12.206 34.463-16.466 49.050-6.103 20.874-9.447 32.143-13.757 40.166-8.601 16-25.708 25.538-45.834 25.538-23.767 0-48.947-12.519-65.716-32.676-20.392-24.474-19.564-60.984 2.472-110.787 2.643-7.357 5.524-14.403 8.407-19.523h-67.584c-39.7 0-65.356-26.675-65.356-66.181 0-12.288 2.432-22.743 5.822-30.587-3.404-7.531-5.822-17.28-5.822-29.046 0-17.009 5.724-29.44 12.288-38.057-1.566-5.519-2.663-12.104-2.663-19.64 0-18.228 8.581-32.266 16.691-41.933-1.239-10.399-0.532-23.86 6.425-38.615 14.448-30.659 37.662-48.256 63.692-48.256h159.616c30.29 0 53.888 11.402 70.077 22.902 9.707-13.245 25.877-22.902 41.267-22.902h18.862c23.613 0 40.642 19.533 44.672 37.909l33.316 150.241c2.735 12.579-0.163 26.317-7.93 35.957zM368.64 29.44h-21.663c-10.563-9.493-30.3-25.6-59.945-25.6-41.974 0-130.104 0-159.616 0-11.868 0-23.046 10.219-31.273 27.673-8.222 17.459 0.517 29.916 0.517 33.147 0 3.226-20.209 15.851-20.209 32.067s9.298 21.627 9.298 27.745c0 6.113-18.928 7.567-18.928 29.742 0 22.17 14.792 24.192 14.792 28.053 0 3.865-14.792 7.721-14.792 31.872 0 24.146 15.12 30.341 29.516 30.341h116.925c-1.798 20.48-15.8 43.971-24.428 68.659-10.911 24.33-22.077 58.536-8.238 75.146 10.773 12.943 26.486 19.185 38.165 19.185 6.589 0 11.894-2.171 14.3-6.641 6.656-12.406 19.84-72.356 31.61-91.392 23.322-35.496 74.875-118.077 77.814-125.644 1.412-3.64 5.672-10.993 5.672-10.993h20.48v-143.36zM460.226 164.976l-33.336-150.861c-0.938-4.265-5.279-10.276-9.662-10.276h-18.862c-7.536 0-14.366 7.552-14.366 11.92 0 0 0 144.456 0 150.856s3.666 6.185 9.538 6.185c3.906 0 51.425 0 60.447 0 4.362 0 7.168-3.558 6.241-7.824z" />
<glyph unicode="&#xe021;" d="M254.75 354.304c-15.073 24.376-31.954 101.161-40.478 117.043-8.536 15.872-45.608 9.144-67.19-16.788-17.726-21.273-3.425-62.305 10.552-93.465 11.049-31.616 28.984-55.174 31.288-85.894h-149.755c-18.442 0-37.796-9.984-37.796-40.909 0-30.93 18.928-36.152 18.928-41.098s-18.928-8.412-18.928-36.803c0-28.401 24.244-30.7 24.244-38.528s-11.925-14.986-11.925-35.752c0-20.767 25.881-37.048 25.881-41.185s-11.188-17.603-0.656-39.962c10.538-22.37 24.858-32.963 40.059-32.963 37.796 0 150.666 0 204.426 0 53.755 0 110.838 36.408 110.838 36.408v161.173l-36.531 27.801c-16.543 14.695-73.088 115.462-102.958 160.922zM502.344 183.040h-71.224c-5.596 0-11.279-5.944-11.279-11.541v-193.326c0-5.596 5.683-10.173 11.279-10.173h24.166c5.591 0 11.156 4.47 12.36 9.933l42.685 194.483c1.202 5.474-2.392 10.624-7.988 10.624z" />
<glyph unicode="&#xe022;" d="M495.216 255.155l-33.316 150.666c-4.029 18.38-21.053 38.338-44.672 38.338h-18.862c-15.39 0-31.56-9.656-41.267-22.902-16.18 11.5-39.778 22.902-70.067 22.902h-159.616c-26.030 0-49.244-18.022-63.693-48.68-6.953-14.756-7.664-28.426-6.425-38.825-8.11-9.666-16.691-23.813-16.691-42.035 0-7.542 1.096-14.178 2.663-19.697-6.564-8.616-12.288-21.074-12.288-38.082 0-11.766 2.417-21.535 5.821-29.062-3.389-7.844-5.822-17.88-5.822-30.168-0.006-39.51 25.651-65.772 65.347-65.772h67.584c-2.877-5.12-5.766-12.59-8.402-19.952-22.041-49.802-22.871-86.522-2.472-110.997 16.768-20.158 41.948-32.778 65.715-32.778 20.132 0 37.233 9.482 45.834 25.488 4.312 8.024 7.649 19.267 13.757 40.141 4.26 14.587 12.058 41.564 16.466 49.034 5.294 8.106 65.014 100.418 79.15 126.792 7.762-4.127 16.337-6.046 24.412-6.046h55.613c13.25 0 25.385 6.277 33.305 16.103 7.767 9.641 10.666 22.952 7.926 35.532zM368.64 239.36h-20.48c0 0-4.26-7.778-5.678-11.412-2.938-7.573-54.498-90.362-77.814-125.86-11.77-19.031-24.954-79.094-31.611-91.5-2.406-4.47-7.71-6.697-14.3-6.697-11.678 0-27.398 6.211-38.165 19.159-13.839 16.61-2.667 51.226 8.238 75.556 8.627 24.683 22.631 48.589 24.428 69.068h-116.93c-14.398 0-29.517 5.77-29.517 29.916 0 24.151 14.792 27.797 14.792 31.662 0 3.856-14.792 5.77-14.792 27.945 0 22.174 18.928 23.572 18.928 29.686 0 6.118-9.298 11.505-9.298 27.72 0 16.216 20.209 28.826 20.209 32.052 0 3.231-8.74 16.108-0.517 33.567 8.228 17.459 19.404 28.093 31.272 28.093 29.512 0 117.642 0 159.616 0 29.644 0 49.382-15.36 59.945-25.6h21.673v-143.355zM453.986 239.36c-9.022 0-56.54 0-60.447 0-5.873 0-9.538-1.065-9.538 5.335s0 150.856 0 150.856c0 4.366 6.83 12.768 14.372 12.768h18.862c4.377 0 8.724-6.436 9.661-10.7l33.336-150.646c0.922-4.264-1.884-7.613-6.246-7.613z" />
<glyph unicode="&#xe023;" d="M78.976 480c-15.201 0-29.522-10.664-40.054-33.024-10.532-22.354 0.656-35.896 0.656-40.028s-25.881-20.413-25.881-41.18c0-20.772 11.924-27.92 11.924-35.748s-24.244-10.127-24.244-38.522c0-28.391 18.928-31.836 18.928-36.787s-18.928-10.132-18.928-41.068c-0.006-30.925 19.349-40.843 37.791-40.843h149.755c-2.304-30.72-20.239-54.344-31.288-85.96-13.977-31.16-28.278-72.258-10.552-93.537 21.581-25.933 58.655-32.66 67.19-16.788 8.524 15.882 25.405 92.666 40.484 117.038 29.87 45.461 86.41 146.232 102.958 160.927l36.526 27.802v161.167c0 0-57.082 36.552-110.838 36.552-53.76 0-166.63 0-204.426 0zM510.33 275.543l-42.685 194.452c-1.204 5.464-6.769 10.005-12.36 10.005h-24.166c-5.596 0-11.279-4.721-11.279-10.317v-193.326c0-5.591 5.683-11.397 11.279-11.397h71.229c5.591 0 9.185 5.114 7.982 10.584z" />
<glyph unicode="&#xe024;" d="M503.839 264.976c-4.577 14.142-17.198 24.77-32.103 26.885l-122.552 17.813-54.861 111.749c-6.753 13.66-20.378 22.738-35.584 22.738h-0.015c-1.003 0-2.007-0.646-2.98-0.712l-0.676-0.348-0.676-0.226c-13.568-1.495-25.278-9.774-31.298-22.016l-54.834-111.15-122.665-17.844c-14.741-2.063-27.382-12.678-32.046-27.014-4.664-14.551-0.819-30.074 9.953-40.652l88.853-86.589-20.962-122.158c-2.544-14.792 3.686-30.055 15.856-38.871 6.938-4.976 14.956-7.558 23.306-7.558 1.454 0 2.913 0.082 4.368 0.24 5.263 0.635 10.010 2.13 14.376 4.486l109.415 57.512 109.706-57.666c5.412-2.923 11.919-4.562 18.504-4.562 1.346 0 2.693 0.067 4.029 0.2l0.348 0.031 0.344 0.041c6.769 0.834 13.236 3.384 18.698 7.384 12.221 8.873 18.268 23.757 15.692 38.764l-20.94 122.159 88.75 86.518c10.803 10.526 14.714 26.558 9.994 40.847zM464.686 246.636l-98.334-95.847 23.209-135.337c0.42-2.401-0.579-4.828-2.555-6.267-0.911-0.671-1.976-1.065-3.062-1.192-0.226-0.021-0.456-0.036-0.686-0.036-1.019 0-2.068 0.231-3.005 0.743l-121.543 63.892-121.534-63.887c-0.702-0.384-1.48-0.615-2.263-0.707-0.231-0.021-0.46-0.046-0.691-0.046-1.332 0-2.667 0.435-3.788 1.24-1.976 1.423-2.96 3.865-2.555 6.267l23.214 135.332-98.325 95.831c-1.746 1.71-2.376 4.25-1.618 6.584 0.748 2.32 2.76 4.020 5.176 4.357l135.88 19.748 60.774 123.126c0.963 1.981 2.877 2.898 5.033 3.133 0.231 0.016 0.466-0.368 0.712-0.368 0.005 0 0.010 0 0.015 0 2.438 0 4.649-0.994 5.724-3.17l60.779-122.921 135.875-19.635c2.422-0.348 4.418-1.997 5.161-4.316 0.779-2.32 0.149-4.814-1.592-6.524z" />
<glyph unicode="&#xe025;" d="M503.209 257.228l-118.246-115.46 28.078-162.856c0.502-2.882-0.692-5.8-3.067-7.536-1.101-0.788-2.365-1.286-3.682-1.433-1.505-0.159-3.057 0.108-4.44 0.84l-146.325 76.768-146.196-77.014c-0.865-0.466-1.797-0.748-2.734-0.844-1.879-0.216-3.814 0.272-5.397 1.418-2.371 1.72-3.564 4.654-3.072 7.542l27.791 162.888-118.442 115.25c-2.104 2.043-2.857 5.11-1.956 7.911 0.902 2.791 3.318 4.824 6.216 5.248l163.518 23.9 73.006 148.255c1.173 2.376 3.471 3.968 6.062 4.27 0.281 0.015 0.568 0.041 0.856 0.031 2.934 0.015 5.622-1.659 6.922-4.291l73.272-148.117 163.533-23.619c2.913-0.414 5.325-2.462 6.231-5.242 0.921-2.796 0.164-5.862-1.93-7.906z" />
<glyph unicode="&#xe026;" d="M460.8 194.806v166.006c0 51.231-34.913 83.348-86.149 83.348h-288.517c-51.226 0-86.134-32.118-86.134-83.348v-192.604c0-51.231 34.908-87.567 86.134-87.567h17.004c6.799-5.12 13.665-15.483 20.377-23.598 10.266-12.401 20.88-24.192 31.207-36.413 6.809-8.054 16.824-11.668 27.376-11.668h12.462c19.794 0 35.84 14.93 35.84 34.724v36.956h20.48v-8.95c0-36.884 25.554-62.73 62.433-62.73h4.127v-4.276c0-19.794 17.567-36.684 37.361-36.684h6.707c10.552 0 20.567 5.068 27.377 13.128 5.586 6.61 11.269 13.644 16.947 20.505 1.976 2.39 3.952 7.327 5.923 7.327h36.327c36.88 0 63.918 25.846 63.918 62.73v61.507c0 32.651-20.48 56.54-51.2 61.61zM194.56 116.48c0-20.48 0-51.2 0-71.68h-12.462c-20.52 25.6-41.733 51.2-62.254 71.68h-33.704c-24.904 0-42.398 12.339-48.292 33.966-1.142 4.803-2.008 10.072-2.008 15.846v194.519c0 32.532 19.21 47.508 50.294 47.508h288.517c31.084 0 50.308-14.976 50.308-47.508v-194.519c0-1.813-0.328-3.553-0.44-5.269-0.046-0.471-0.21-1.045-0.25-1.562-2.5-28.103-20.793-42.982-49.618-42.982h-180.090zM476.16 71.69c0-17.51-11.351-26.89-28.078-26.89h-53.079c-11.044-15.36-22.456-25.6-33.495-40.96h-8.228c0 15.36 0 30.72 0 40.96h-39.966c-16.722 0-26.594 9.38-26.594 26.89v29.43h87.93c37.151 0 61.245 21.356 64.696 56.32h8.735c16.728 0 28.079-6.738 28.079-24.243v-61.507zM245.76 362.24h128v-15.36h-128zM245.76 300.8h112.64v-15.36h-112.64zM87.040 177.92h209.92v-15.36h-209.92zM87.040 239.36h286.72v-15.36h-286.72zM186.696 284.477c0.036 0 0.066 0.010 0.107 0.010 0.046 0 0.097-0.010 0.143-0.010 12.846 0 23.266 10.42 23.266 23.26 0 12.652-10.127 22.902-22.712 23.199 3.456 4.746 10.28 11.034 20.577 18.868 3.614 2.75 4.588 3.486 5.351 4.874 1.362 2.452 2.14 6.282-1.844 10.568-2.13 2.329-4.987 3.563-8.258 3.563-2.76 0-7.117-1.075-20.23-8.883-9.758-5.812-17.173-12.483-22.031-19.84-5.002-7.572-7.531-16.046-7.531-25.186 0-8.734 3.231-16.102 9.606-21.888 6.214-5.662 14.141-8.535 23.556-8.535zM113.464 284.477c0.036 0 0.072 0.010 0.108 0.010 0.046 0 0.092-0.010 0.138-0.010 12.846 0 23.265 10.42 23.265 23.26 0 12.652-10.127 22.902-22.718 23.199 3.456 4.746 10.286 11.034 20.583 18.868 3.614 2.75 4.588 3.486 5.351 4.874 1.362 2.452 2.14 6.282-1.844 10.568-2.13 2.329-4.987 3.563-8.258 3.563-2.76 0-7.122-1.075-20.23-8.883-9.764-5.812-17.172-12.483-22.031-19.84-5.002-7.572-7.531-16.046-7.531-25.186 0-8.734 3.236-16.102 9.606-21.888 6.221-5.662 14.147-8.535 23.562-8.535z" />
<glyph unicode="&#xe027;" d="M393.692 98.889c33.487 0 54.748 17.274 57.637 49.92 0.061 0.61 0.256 1.268 0.305 1.841 0.122 1.975 0.524 3.998 0.524 6.108v226.024c0 37.803-22.37 55.199-58.466 55.199h-335.262c-36.108 0.012-58.429-17.396-58.429-55.199v-226.024c0-6.692 1-12.837 2.329-18.42 6.839-25.125 27.172-39.449 56.113-39.449h39.168c23.844-23.808 48.493-53.565 72.339-83.31h14.482c0 23.808 0 59.502 0 83.31h209.261zM479 217.868h-10.142c-3.998-35.694 26.892-136.838-75.166-136.838h-131.925v-34.207c0-20.334 14.275-31.244 33.719-31.244h73.375c0-11.898 0-29.745 0-47.58h9.582c12.812 17.834 26.075 29.745 38.9 47.579h61.671c19.444 0 32.634 10.923 32.634 31.244v145.262c-0.012 20.334-13.202 25.783-32.646 25.783z" />
<glyph unicode="&#xe028;" d="M446.116 410.772h-379.955c-40.934 0-65.603-22.743-65.603-65.587v-213.202c0-42.849 24.668-65.598 65.603-65.598h89.006c0-30.526 0-67.861 0-98.391h16.41c27.024 31.98 54.952 66.416 81.987 98.392h192.552c40.935 0 65.587 22.743 65.587 65.598v213.202c-0.005 42.839-24.654 65.587-65.587 65.587z" />
<glyph unicode="&#xe02a;" d="M512 46.933c0-20.394-13.19-31.281-32.671-31.281h-61.721c-12.849-17.834-26.112-29.805-38.924-47.628h-9.57c0 17.822 0 35.731 0 47.628h-46.483c-19.444 0-30.903 10.911-30.903 31.281v34.195h102.242c43.191 0 71.217 24.808 75.215 65.475h10.142c19.481 0 32.671-7.851 32.671-28.197v-71.473zM393.972 438.333h-335.469c-36.157 0-58.502-17.433-58.502-55.26v-226.218c0-6.668 1.036-12.812 2.353-18.408 6.851-25.149 27.197-39.485 56.161-39.485h39.18c23.881-23.808 48.542-53.589 72.387-83.334h14.506c0 23.796 0 59.526 0 83.334h209.42c33.5 0 54.784 17.298 57.685 49.957 0.024 0.634 0.219 1.305 0.268 1.841 0.122 1.95 0.512 4.035 0.512 6.095v226.219c0 37.827-22.345 55.26-58.502 55.26zM244.102 384.719h148.821v-17.822h-148.821v17.822zM244.102 313.283h130.975v-17.859h-130.975v17.859zM145.627 358.973c5.668 8.558 14.275 16.298 25.637 23.101 15.226 9.058 20.285 10.301 23.528 10.301 3.791 0 7.119-1.451 9.594-4.132 4.632-5.022 3.731-9.447 2.133-12.3-0.89-1.633-2.012-2.462-6.217-5.668-11.971-9.082-19.895-16.433-23.917-21.955 14.629-0.317 26.392-12.252 26.392-26.978 0-14.909-12.118-27.026-27.038-27.026-0.061 0-0.134 0-0.171 0-0.073 0-0.109 0-0.147 0-10.947 0-20.188 3.352-27.368 9.899-7.412 6.741-11.203 15.299-11.203 25.453 0 10.63 2.938 20.456 8.777 29.306zM51.688 329.679c0 10.63 2.974 20.456 8.765 29.306 5.681 8.546 14.263 16.286 25.624 23.089 15.226 9.058 20.322 10.301 23.54 10.301 3.803 0 7.132-1.451 9.582-4.132 4.632-5.022 3.755-9.447 2.145-12.3-0.853-1.633-1.999-2.45-6.242-5.656-11.934-9.094-19.882-16.445-23.906-21.967 14.641-0.317 26.404-12.252 26.404-26.978 0-14.909-12.093-27.026-27.050-27.026-0.037 0-0.109 0-0.147 0s-0.073 0-0.147 0c-10.922 0-20.163 3.352-27.38 9.911-7.412 6.742-11.191 15.299-11.191 25.454zM303.64 152.551h-244.065v17.859h244.065v-17.859zM392.948 223.988h-333.373v17.859h333.373v-17.859z" />
<glyph unicode="&#xe040;" d="M447.212 352h-89.272l11.945 11.269c8.99 8.966 13.957 20.587 13.957 33.341 0 26.245-21.361 47.437-47.611 47.437-12.754 0-24.74-5.069-33.746-14.116l-46.178-46.214-46.238 46.224c-8.95 8.986-20.92 13.946-33.674 13.946-26.261 0-47.631-21.366-47.631-47.611 0-12.708 4.956-23.998 13.952-32.998l11.945-11.279h-89.272c-36.054 0-65.388-30.485-65.388-66.284v-252.764c0-35.82 29.332-64.952 65.388-64.952h381.829c36.050 0 64.784 29.132 64.784 64.957v252.76c0 35.798-28.733 66.284-64.788 66.284zM476.16 32.957c0-16.942-11.771-29.118-28.949-29.118h-381.824c-17.177 0-29.547 12.175-29.547 29.118v252.76c0 16.896 12.37 30.443 29.547 30.443h172.083l-70.498 70.59c-2.411 2.406-3.922 5.78-3.922 9.477 0 7.348 5.976 13.328 13.338 13.328 3.676 0 7.010-1.485 9.426-3.896l70.487-70.488 70.488 70.482c2.411 2.416 5.75 3.922 9.442 3.922 7.363 0 13.322-5.96 13.322-13.306 0-3.697-1.5-7.117-3.916-9.518l-70.492-70.59h172.068c17.178 0 28.948-13.547 28.948-30.443v-252.76zM317.466 285.44h-199.72c-33.874 0-61.425-27.55-61.425-61.415v-128.066c0-33.853 27.551-61.399 61.425-61.399h199.72c33.864 0 61.414 27.546 61.414 61.399v128.066c0 33.864-27.55 61.415-61.414 61.415zM363.52 95.038c0-24.878-22.671-45.118-47.56-45.118h-201.41c-24.888 0-42.87 18.74-42.87 43.623v131.405c0 24.888 20.255 45.133 45.144 45.133h201.411c24.888 0 45.286-21.013 45.286-45.906v-129.136zM399.262 180.264c0 0 0 0 0 0 0-15.544 12.601-28.144 28.144-28.144s28.144 12.601 28.144 28.144c0 0 0 0 0 0 0 15.544-12.601 28.144-28.144 28.144s-28.144-12.601-28.144-28.144zM427.408 229.474c15.457 0 27.991 12.534 27.991 27.992 0 15.452-12.538 27.976-27.991 27.976-15.442 0-27.986-12.524-27.986-27.976-0.005-15.453 12.544-27.992 27.986-27.992zM189.44 106.24l66.714 53.663-66.714 53.668z" />
<glyph unicode="&#xe041;" d="M465.792 326.4h-155.526l49.567 50.197c5.464 5.448 8.488 13.046 8.488 20.798 0 15.964-13 29.118-28.954 29.118-7.752 0-15.043-2.95-20.505-8.448l-64.368-64.308-64.368 64.394c-5.448 5.468-12.724 8.5-20.49 8.5-15.964 0-28.953-12.984-28.953-28.948 0-7.726 3.011-15.622 8.484-21.105l49.566-50.197h-146.975c-26.363 0-51.758-19.978-51.758-46.095v-264.94c0-26.118 25.395-47.365 51.758-47.365h414.029c26.363 0 46.208 21.248 46.208 47.344v264.96c0.005 26.118-19.84 46.096-46.202 46.096zM378.88 77.082c0-27.151-24.248-47.642-51.41-47.642h-218.378c-27.162 0-47.652 20.49-47.652 47.642v141.358c0 27.151 20.49 51.64 47.652 51.64h218.378c27.162 0 51.41-24.488 51.41-51.64v-141.358zM443.822 143.11c-15.606 0-28.278 12.666-28.278 28.288 0 15.632 12.678 28.288 28.278 28.288 15.626 0 28.298-12.662 28.298-28.288 0-15.622-12.676-28.288-28.298-28.288zM443.822 218.548c-15.606 0-28.278 12.666-28.278 28.288s12.678 28.283 28.278 28.283c15.626 0 28.298-12.662 28.298-28.283s-12.676-28.288-28.298-28.288zM179.2 81.88l76.472 64.962-76.472 64.947z" />
<glyph unicode="&#xe042;" d="M436.992 270.080h-176.24l163.067 37.319c17.833 3.84 29.332 22.395 25.851 40.295l-9.324 48.517c-1.705 8.786-6.851 16.798-14.3 21.76-5.54 3.697-12.012 5.77-18.575 5.77-2.248 0-4.505-0.153-6.743-0.614l-347.75-70.528c-18.028-3.707-29.691-21.248-26.112-39.301l9.779-49.346c1.188-4.296 6.672-5.166 6.672-5.166-3.195-5.115-2.355-11.111-2.355-17.597v-207.78c0-33.721 19.41-65.408 53.13-65.408h315.244c33.721 0 61.706 31.688 61.706 65.408v207.78c0 18.499-15.555 28.892-34.048 28.892zM385.346 193.28h-69.73l41.882 40.96h69.714l-41.866-40.96zM284.278 234.24l-41.866-40.96h-73.216l41.876 40.96h73.206zM138.512 234.24l-41.876-40.96h-19.835v40.96h61.712zM206.172 296.079l-60.165 40.566 70.953 14.592 59.802-40.315-70.589-14.843zM416.784 340.362l-69.458-14.607-59.413 40.059 72.202 14.843 56.673-38.21-0.374-0.082 0.368-2.002zM59.305 319.355l12.416 2.693 59.96-40.812-61.41-13.102-10.967 51.221zM404.214 3.84h-305.003c-7.915 0-22.41 11.090-22.41 29.568v144.512h358.4v-144.512c0-19.118-23.070-29.568-30.986-29.568z" />
<glyph unicode="&#xe043;" d="M447.22 351.988h-89.271l11.923 11.3c9.009 8.948 13.983 20.577 13.983 33.317 0 26.27-21.382 47.457-47.628 47.457-12.751 0-24.723-5.084-33.755-14.129l-46.153-46.214-46.25 46.214c-8.96 8.985-20.931 13.971-33.683 13.971-26.246 0-47.628-21.37-47.628-47.628 0-12.69 4.962-24.003 13.934-32.988l11.983-11.3h-89.295c-36.047 0-65.377-30.476-65.377-66.279v-252.769c0-35.791 29.331-64.939 65.377-64.939h381.842c36.047 0 64.78 29.147 64.78 64.927v252.781c0 35.803-28.733 66.279-64.78 66.279zM476.16 32.926c0-16.921-11.776-29.087-28.94-29.087h-381.842c-17.164 0-29.526 12.166-29.526 29.087v252.781c0 16.896 12.361 30.464 29.526 30.464h172.093l-70.498 70.595c-2.426 2.389-3.925 5.766-3.925 9.472 0 7.326 5.998 13.337 13.337 13.337 3.681 0 7.010-1.5 9.435-3.901l70.497-70.498 70.473 70.498c2.401 2.413 5.754 3.925 9.423 3.925 7.363 0 13.324-5.998 13.324-13.337 0-3.681-1.5-7.107-3.925-9.497l-70.473-70.595h172.081c17.164 0 28.94-13.556 28.94-30.464v-252.781zM317.476 285.44h-199.716c-33.877 0-61.428-27.538-61.428-61.404v-128.073c0-33.829 27.55-61.404 61.428-61.404h199.716c33.841 0 61.404 27.575 61.404 61.404v128.061c0 33.865-27.563 61.415-61.404 61.415zM363.52 95.025c0-24.868-22.687-45.117-47.555-45.117h-201.411c-24.893 0-42.862 18.761-42.862 43.642v131.389c0 24.893 20.236 45.154 45.129 45.154h201.399c24.868 0 45.3-21.029 45.3-45.922v-129.146zM455.57 180.26c0-15.546-12.602-28.148-28.148-28.148s-28.148 12.602-28.148 28.148c0 15.546 12.602 28.148 28.148 28.148s28.148-12.602 28.148-28.148zM455.375 257.451c0-15.452-12.526-27.977-27.977-27.977s-27.977 12.526-27.977 27.977c0 15.452 12.526 27.977 27.977 27.977s27.977-12.526 27.977-27.977zM261.132 203.508h-35.864v-10.228h-15.348v10.228h-35.84v-10.228h-10.24v-76.8h107.52v76.8h-10.228z" />
<glyph unicode="&#xe044;" d="M447.183 351.988h-89.246l11.935 11.264c8.985 8.972 13.958 20.602 13.958 33.341 0 26.246-21.346 47.433-47.616 47.433-12.751 0-24.698-5.059-33.719-14.105l-46.202-46.226-46.238 46.226c-8.948 8.985-20.931 13.958-33.683 13.958-26.246 0-47.616-21.346-47.616-47.591 0-12.727 4.962-23.991 13.958-33.024l11.934-11.264h-89.271c-36.047-0.012-65.377-30.5-65.377-66.292v-252.733c0-35.828 29.331-64.975 65.377-64.975h381.793c36.096 0 64.829 29.147 64.829 64.975v252.733c0 35.791-28.733 66.279-64.817 66.279zM476.172 32.975c0-16.945-11.8-29.123-28.989-29.123h-381.805c-17.164 0-29.562 12.178-29.562 29.123v252.733c0 16.896 12.398 30.44 29.562 30.44h172.093l-70.51 70.595c-2.413 2.389-3.901 5.778-3.901 9.484 0 7.339 5.961 13.337 13.312 13.337 3.694 0 7.022-1.5 9.447-3.889l70.473-70.51 70.473 70.473c2.426 2.438 5.741 3.95 9.435 3.95 7.375 0 13.324-5.961 13.324-13.312 0-3.706-1.5-7.132-3.901-9.533l-70.473-70.595h172.032c17.188 0 28.989-13.531 28.989-30.44v-252.733zM317.452 285.452h-199.716c-33.877 0-61.428-27.563-61.428-61.428v-128.061c0-33.841 27.55-61.404 61.428-61.404h199.716c33.853 0 61.404 27.563 61.404 61.404v128.049c0 33.865-27.55 61.44-61.404 61.44zM363.508 95.037c0-24.868-22.675-45.117-47.567-45.117h-201.399c-24.893 0-42.874 18.724-42.874 43.618v131.401c0 24.893 20.249 45.142 45.142 45.142h201.399c24.881 0 45.288-21.029 45.288-45.922v-129.121zM455.546 180.273c0-15.546-12.602-28.148-28.148-28.148s-28.148 12.602-28.148 28.148c0 15.546 12.602 28.148 28.148 28.148s28.148-12.602 28.148-28.148zM455.387 257.451c0-15.458-12.531-27.99-27.99-27.99s-27.99 12.531-27.99 27.99c0 15.458 12.531 27.989 27.99 27.989s27.99-12.531 27.99-27.989zM271.36 218.88v20.468l-97.292-30.72v-61.123c0-6.241-11.642-5.546-11.642-5.546-11.898-0.256-21.48-9.959-21.48-21.918 0-12.178 9.862-22.028 22.004-22.028 0.061 0 0.097 0 0.159 0 0.036 0 0.061 0 0.097 0 8.911 0 16.409 2.719 22.284 8.046 6.047 5.486 9.107 12.471 9.107 20.724 0 8.68-0.036 27.282-0.036 27.282v39.424l56.32 18.603v-49.25c0-6.241-11.642-5.51-11.642-5.51-11.922-0.281-21.504-10.009-21.504-21.991 0-12.13 9.862-22.004 22.028-22.004 0.036 0 0.073 0 0.122 0 0.061 0 0.073 0 0.122 0 8.899 0 16.42 2.719 22.284 8.070 6.046 5.474 9.118 12.447 9.118 20.724 0 8.631-0.024 27.282-0.024 27.282v49.469z" />
<glyph unicode="&#xe045;" d="M447.207 352h-89.259l11.935 11.288c8.997 8.96 13.971 20.589 13.971 33.329 0 26.271-21.358 47.445-47.591 47.445-12.751 0-24.735-5.083-33.767-14.116l-46.178-46.214-46.226 46.214c-8.96 9.009-20.931 13.971-33.683 13.971-26.27 0-47.628-21.382-47.628-47.628 0-12.69 4.974-24.003 13.946-32.999l11.946-11.288h-89.271c-36.059 0-65.402-30.476-65.402-66.292v-252.733c0-35.828 29.343-64.975 65.402-64.975h381.805c36.072 0 64.793 29.147 64.793 64.975v252.733c0 35.815-28.721 66.292-64.793 66.292zM476.16 32.975c0-16.969-11.776-29.135-28.952-29.135h-381.805c-17.164 0-29.549 12.166-29.549 29.135v252.733c0 16.896 12.386 30.452 29.549 30.452h172.069l-70.486 70.583c-2.426 2.426-3.925 5.79-3.925 9.484 0 7.339 5.961 13.324 13.337 13.324 3.669 0 7.022-1.487 9.423-3.889l70.473-70.51 70.498 70.51c2.401 2.401 5.741 3.938 9.447 3.938 7.351 0 13.3-5.974 13.3-13.324 0-3.693-1.487-7.107-3.913-9.521l-70.473-70.583h172.056c17.176 0 28.952-13.556 28.952-30.452v-252.745zM317.464 285.44h-199.729c-33.877 0-61.416-27.563-61.416-61.416v-128.061c0-33.853 27.538-61.391 61.416-61.391h199.729c33.865 0 61.404 27.538 61.404 61.391v128.061c0 33.853-27.538 61.415-61.404 61.415zM363.52 95.049c0-24.881-22.675-45.117-47.543-45.117h-201.435c-24.893 0-42.874 18.737-42.874 43.606v131.413c0 24.881 20.249 45.142 45.166 45.142h201.399c24.881 0 45.288-21.029 45.288-45.91v-129.133zM455.57 180.273c0-15.546-12.602-28.148-28.148-28.148s-28.148 12.602-28.148 28.148c0 15.546 12.602 28.148 28.148 28.148s28.148-12.602 28.148-28.148zM455.399 257.463c0-15.451-12.526-27.977-27.977-27.977s-27.977 12.526-27.977 27.977c0 15.452 12.526 27.977 27.977 27.977s27.977-12.526 27.977-27.977zM257.804 203.508h-12.044v20.48h-56.32v-20.48h-11.703c-14.117 0-19.005-8.704-19.005-22.82v-61.476c0-13.397 5.12-18.688 20.48-18.688v-9.642h76.8v9.033c15.348 0 20.48 6.692 20.48 19.529v61.928c0 13.324-4.535 22.138-18.688 22.138z" />
<glyph unicode="&#xe046;" d="M447.22 352h-89.271l11.935 11.264c8.997 8.972 13.971 20.602 13.971 33.353 0 26.259-21.358 47.446-47.616 47.446-12.751 0-24.735-5.071-33.767-14.129l-46.178-46.189-46.214 46.214c-8.96 8.997-20.931 13.946-33.695 13.946-26.258 0-47.616-21.358-47.616-47.604 0-12.714 4.95-24.003 13.934-33.012l11.959-11.288h-89.295c-36.035 0-65.365-30.476-65.365-66.292v-252.745c0-35.815 29.331-64.963 65.365-64.963h381.842c36.060 0 64.793 29.147 64.793 64.963v252.745c0 35.815-28.733 66.292-64.78 66.292zM476.172 32.963c0-16.957-11.788-29.123-28.952-29.123h-381.854c-17.164 0-29.549 12.166-29.549 29.123v252.745c0 16.896 12.386 30.452 29.549 30.452h172.105l-70.486 70.583c-2.426 2.413-3.925 5.802-3.925 9.484 0 7.363 5.974 13.337 13.324 13.337 3.669 0 7.022-1.487 9.435-3.889l70.461-70.498 70.498 70.498c2.426 2.413 5.754 3.913 9.435 3.913 7.363 0 13.312-5.949 13.312-13.312 0-3.694-1.487-7.107-3.913-9.521l-70.473-70.583h172.068c17.164 0 28.952-13.543 28.952-30.452v-252.757zM317.464 285.452h-199.729c-33.865 0-61.428-27.563-61.428-61.428v-128.061c0-33.841 27.563-61.404 61.428-61.404h199.729c33.865 0 61.416 27.563 61.416 61.404v128.061c0 33.865-27.55 61.428-61.416 61.428zM363.52 95.049c0-24.893-22.687-45.142-47.555-45.142h-201.411c-24.893 0-42.874 18.749-42.874 43.642v131.401c0 24.893 20.249 45.129 45.129 45.129h201.411c24.881 0 45.3-21.028 45.3-45.921v-129.109zM455.558 180.273c0-15.539-12.596-28.135-28.135-28.135s-28.135 12.596-28.135 28.135c0 15.539 12.596 28.135 28.135 28.135s28.135-12.596 28.135-28.135zM455.412 257.463c0-15.458-12.531-27.989-27.99-27.989s-27.99 12.531-27.99 27.989c0 15.458 12.531 27.99 27.99 27.99s27.99-12.531 27.99-27.99zM149.212 137.070c-2.268-4.767-7.716-8.106-13.287-8.106-8.984 0-16.275 8.192-16.275 18.322 0 10.276 7.29 18.663 16.275 18.663 6.254 0 11.142-4.023 13.166-7.985l0.122-0.231h18.615l-0.122 0.5c-3.864 14.933-15.75 23.857-31.78 23.857-19.419 0-34.072-14.933-34.072-34.694 0-19.639 14.653-34.462 34.072-34.462 16.153 0 28.075 8.923 31.903 23.857l0.122 0.524h-18.639l-0.097-0.244zM175.104 209.42h17.53v-94.964h-17.53v94.964zM240.226 141.958c0-7.156-5.132-12.349-12.239-12.349-10.886 0-11.727 9.447-11.727 12.349v38.498h-17.517v-38.498c0-17.347 10.496-29.014 26.1-29.014 6.375 0 11.946 2.353 16.153 6.803v-5.291h16.762v65.999h-17.517v-38.498zM301.068 181.833c-7.082 0-13.666-2.511-18.7-7.034v34.621h-17.639v-94.964h16.872v6.375c5.156-5.022 11.995-7.765 19.468-7.765 17.579 0 31.378 15.067 31.378 34.329 0 19.31-13.788 34.438-31.378 34.438zM314.173 130.889h-24.406v28.355c0 0.536 0.439 0.988 0.988 0.988h3.462v3.828c0 0.585 0.488 1.048 1.036 1.048h13.276c0.561 0 1-0.463 1-1.048v-3.828h3.67c0.548 0 0.988-0.451 0.988-0.988v-28.355z" />
<glyph unicode="&#xe047;" d="M160.138 139.166c-3.21-6.779-10.967-11.52-18.877-11.52-12.749 0-23.122 11.658-23.122 26.005 0 14.633 10.368 26.537 23.122 26.537 8.883 0 15.805-5.699 18.698-11.356l0.169-0.317h26.445l-0.19 0.732c-5.483 21.197-22.354 33.849-45.123 33.849-27.576 0-48.364-21.182-48.364-49.27 0-27.878 20.793-48.901 48.364-48.901 22.938 0 39.869 12.651 45.307 33.853l0.185 0.727h-26.46l-0.154-0.338zM196.894 241.899h24.893v-134.825h-24.893v134.825zM289.387 146.104c0-10.178-7.317-17.556-17.392-17.556-15.452 0-16.645 13.44-16.645 17.557v54.656h-24.873v-54.656c0-24.632 14.879-41.18 37.033-41.18 9.063 0 16.947 3.328 22.938 9.656v-7.506h23.818v93.686h-24.878v-54.656zM375.767 202.736c-10.035 0-19.405-3.543-26.537-10.010v49.173h-25.058v-134.825h23.977v9.037c7.312-7.117 17.055-11.013 27.618-11.013 25.017 0 44.601 21.412 44.601 48.732 0 27.423-19.589 48.906-44.601 48.906zM394.389 130.386h-34.647v40.274c0 0.768 0.62 1.392 1.387 1.392h4.941v5.447c0 0.834 0.656 1.51 1.454 1.51h18.832c0.784 0 1.438-0.676 1.438-1.51v-5.447h5.207c0.758 0 1.387-0.625 1.387-1.392v-40.274zM447.212 352h-381.824c-36.055 0-65.388-30.485-65.388-66.284v-252.764c0-35.82 29.332-64.952 65.388-64.952h381.824c36.060 0 64.788 29.133 64.788 64.957v252.759c0 35.799-28.728 66.284-64.788 66.284zM46.080 24.32c0-5.652-4.587-10.24-10.24-10.24h-10.24c-5.652 0-10.24 4.587-10.24 10.24v10.24c0 5.652 4.588 10.24 10.24 10.24h10.24c5.652 0 10.24-4.587 10.24-10.24v-10.24zM46.080 75.52c0-5.652-4.587-10.24-10.24-10.24h-10.24c-5.652 0-10.24 4.587-10.24 10.24v10.24c0 5.652 4.588 10.24 10.24 10.24h10.24c5.652 0 10.24-4.587 10.24-10.24v-10.24zM46.080 126.72c0-5.652-4.587-10.24-10.24-10.24h-10.24c-5.652 0-10.24 4.587-10.24 10.24v10.24c0 5.652 4.588 10.24 10.24 10.24h10.24c5.652 0 10.24-4.587 10.24-10.24v-10.24zM46.080 177.92c0-5.652-4.587-10.24-10.24-10.24h-10.24c-5.652 0-10.24 4.587-10.24 10.24v10.24c0 5.652 4.588 10.24 10.24 10.24h10.24c5.652 0 10.24-4.587 10.24-10.24v-10.24zM46.080 229.12c0-5.652-4.587-10.24-10.24-10.24h-10.24c-5.652 0-10.24 4.587-10.24 10.24v10.24c0 5.653 4.588 10.24 10.24 10.24h10.24c5.652 0 10.24-4.588 10.24-10.24v-10.24zM46.080 280.32c0-5.652-4.587-10.24-10.24-10.24h-10.24c-5.652 0-10.24 4.588-10.24 10.24v10.24c0 5.652 4.588 10.24 10.24 10.24h10.24c5.652 0 10.24-4.588 10.24-10.24v-10.24zM450.56-0.978c-1.116-0.108-2.186-0.302-3.349-0.302h-381.824c-1.367 0-2.647 0.205-3.947 0.353v321.93c1.285 0.164 2.596 0.276 3.947 0.276h381.824c1.142 0 2.253-0.072 3.349-0.185v-322.074zM496.64 24.32c0-5.652-4.587-10.24-10.24-10.24h-10.24c-5.652 0-10.24 4.587-10.24 10.24v10.24c0 5.652 4.587 10.24 10.24 10.24h10.24c5.652 0 10.24-4.587 10.24-10.24v-10.24zM496.64 75.52c0-5.652-4.587-10.24-10.24-10.24h-10.24c-5.652 0-10.24 4.587-10.24 10.24v10.24c0 5.652 4.587 10.24 10.24 10.24h10.24c5.652 0 10.24-4.587 10.24-10.24v-10.24zM496.64 126.72c0-5.652-4.587-10.24-10.24-10.24h-10.24c-5.652 0-10.24 4.587-10.24 10.24v10.24c0 5.652 4.587 10.24 10.24 10.24h10.24c5.652 0 10.24-4.587 10.24-10.24v-10.24zM496.64 177.92c0-5.652-4.587-10.24-10.24-10.24h-10.24c-5.652 0-10.24 4.587-10.24 10.24v10.24c0 5.652 4.587 10.24 10.24 10.24h10.24c5.652 0 10.24-4.587 10.24-10.24v-10.24zM496.64 229.12c0-5.652-4.587-10.24-10.24-10.24h-10.24c-5.652 0-10.24 4.587-10.24 10.24v10.24c0 5.653 4.587 10.24 10.24 10.24h10.24c5.652 0 10.24-4.588 10.24-10.24v-10.24zM496.64 280.32c0-5.652-4.587-10.24-10.24-10.24h-10.24c-5.652 0-10.24 4.588-10.24 10.24v10.24c0 5.652 4.587 10.24 10.24 10.24h10.24c5.652 0 10.24-4.588 10.24-10.24v-10.24z" />
<glyph unicode="&#xe050;" d="M486.723 311.040h-36.163v33.224c0 18.191-15.416 33.336-33.598 33.336h-115.553c-18.182 0-35.169-15.144-35.169-33.336v-33.224h-20.48v33.224c0 18.191-16.578 33.336-34.77 33.336h-115.532c-18.192 0-34.017-15.144-34.017-33.336v-33.224h-35.737c-14.121 0-25.703-9.405-25.703-23.521v-294.052c0-14.115 11.582-25.466 25.703-25.466h461.020c14.116 0 25.277 11.351 25.277 25.466v294.052c0 14.116-11.161 23.522-25.277 23.522zM302.080 339.605c0 1.25 1.019 2.155 2.274 2.155h118.324c1.26 0 2.284-0.589 2.284-1.838v-49.362h-122.88v49.045zM87.040 339.605c0 1.25 1.019 2.155 2.273 2.155h118.323c1.26 0 2.284-0.589 2.284-1.838v-49.362h-122.88v49.045zM476.16 3.84h-440.32v271.36h440.32v-271.36z" />
<glyph unicode="&#xe051;" d="M512-32v332.8h-61.44v66.56h-153.6v-66.56h-76.8v66.56h-158.72v-66.56h-61.44v-332.8h373.97z" />
<glyph unicode="&#xe052;" d="M296.96 80.64v117.76h-20.48v20.48h-56.32v-20.48h-25.6v20.48h-56.32v-20.48h-20.48v-117.76h130.626zM484.992 398.080h-365.25c-4.434 0-8.838-0.901-12.728-3.026l-92.918-50.524c-8.53-4.669-14.095-13.486-14.095-23.188v-326.789c0-14.642 12.462-26.552 27.1-26.552h370.37c4.45 0 8.858 1.132 12.748 3.267l87.055 50.284c8.514 4.634 14.72 12.068 14.72 21.796v328.627c0.005 14.642-12.365 26.106-27.002 26.106zM378.88 3.84h-343.040v291.84h343.040v-291.84zM35.84 311.040v2.14l85.207 49.060h339.43l-81.598-51.2h-343.040zM476.16 50.238l-81.92-46.397-0.051 296.264 81.971 51.68v-301.548z" />
<glyph unicode="&#xe053;" d="M0 211.456v-182.577c0-33.597 27.27-60.879 60.879-60.879h292.145c33.585 0 60.867 27.283 60.867 60.879v182.577c0 31.597-24.052 57.844-54.784 60.867v73.046c0 73.935-59.965 133.888-133.912 133.888h-36.499c-73.96 0-133.912-59.953-133.912-133.888v-73.046c-30.744-3.023-54.784-29.269-54.784-60.867zM304.335 272.323h-194.78v60.892c0 50.371 40.899 91.282 91.306 91.282h12.166c50.396 0 91.306-40.911 91.306-91.282v-60.892zM158.244 152.93c0 26.929 21.797 48.713 48.689 48.713s48.713-21.784 48.713-48.713c0-22.503-10.532-43.094-31.232-48.664 8.228-26.502-5.937-54.954-5.937-54.954h-23.101c0 0-14.141 28.452-5.937 54.954-20.675 5.571-31.196 26.137-31.196 48.664z" horiz-adv-x="414" />
<glyph unicode="&#xe054;" d="M304.481 450.474c-29.293 19.834-68.486 29.903-116.565 29.903-61.672 0-107.885-14.373-137.338-42.764-28.392-27.245-45.361-63.549-50.578-107.873l120.54-14.921c3.401 25.039 10.362 42.521 21.15 53.382 11.666 11.764 26.538 17.773 44.19 17.773 16.47 0 29.087-4.010 37.559-12.020 8.595-8.009 12.922-19.286 12.922-33.353 0-14.519-9.716-29.489-29.696-45.714-34.157-28.343-56.284-48.226-65.853-59.294-9.363-10.715-16.506-22.735-21.212-35.754-4.755-13.019-7.156-30.391-7.156-51.627v-7.010h117.76c0.597 15.933 3.828 29.452 9.619 39.961 6.412 11.825 21.126 26.685 44.922 45.568 32.159 25.283 53.711 46.823 63.951 64.097 10.057 16.933 15.19 34.707 15.19 52.834-0.024 44.825-19.456 79.774-59.404 106.813zM175.482 97.695c-35.816 0-64.853-28.989-64.853-64.841 0-35.815 29.037-64.853 64.853-64.853 35.852 0 64.841 29.050 64.841 64.853 0.024 35.852-29.001 64.841-64.841 64.841z" horiz-adv-x="364" />
<glyph unicode="&#xe055;" d="M248.857 259.925c-2.633-1.999-7.497-3.633-10.838-3.657h-10.911c-3.304-0.012-8.18 1.633-10.838 3.633 0 0-40.765 30.952-67.84-13.531-27.075-44.447-16.165-92.867-16.165-92.867 1.926-11.861 8.216-19.761 20.102-18.761 11.837 1 37.571 31.927 37.571 31.927 2.109 2.536 6.571 4.608 9.899 4.608l65.451 0.024c3.303 0 7.765-2.097 9.887-4.632 0 0 25.709-30.927 37.608-31.914 11.849-1 18.176 6.912 20.065 18.761 0 0 10.911 48.409-16.14 92.879-27.075 44.483-67.852 13.531-67.852 13.531zM211.651 228.583v-16.554h-15.055v-15.055h-18.042v15.055h-15.055v18.078h15.055v15.031h18.042v-15.031h15.055v-1.524zM272.372 194.791c-6.168 0-11.118 4.962-11.118 11.106s4.95 11.106 11.118 11.106c6.12 0 11.106-4.962 11.106-11.106s-4.986-11.106-11.106-11.106zM272.372 225.341c-6.168 0-11.118 4.962-11.118 11.106 0 6.168 4.95 11.118 11.118 11.118 6.12 0 11.106-4.95 11.106-11.118 0-6.132-4.986-11.106-11.106-11.106zM300.032 208.933c-6.168 0-11.106 4.986-11.106 11.13s4.937 11.106 11.106 11.106c6.132 0 11.106-4.962 11.106-11.106 0-6.156-4.974-11.13-11.106-11.13zM485.522 259.84h-14.483v92.038c0 14.202-11.861 25.722-26.478 25.722h-418.097c-14.604 0-26.465-11.532-26.465-25.722v-291.596c0-14.214 11.861-25.722 26.465-25.722h316.575v-38.278c0-14.214 15.714-28.282 30.33-28.282h112.152c14.616 0 26.478 14.068 26.478 28.282v237.824c0 14.226-11.861 25.734-26.478 25.734zM343.040 234.106v-163.706h-307.2v271.36h399.36v-81.92h-61.83c-14.616 0-30.33-11.508-30.33-25.734zM428.8-8.558c-6.412 0-11.618 5.193-11.618 11.618s5.205 11.63 11.618 11.63 11.618-5.205 11.618-11.63-5.205-11.618-11.618-11.618zM491.508 29.44h-128v209.92h128v-209.92z" />
<glyph unicode="&#xe056;" d="M496.615 3.828h-481.255c0 0-15.36 0-15.36-17.932 0-17.895 15.36-17.895 15.36-17.895h481.255c0 0 15.385 0 15.385 17.908 0 17.92-15.385 17.92-15.385 17.92zM46.958 34.56h420.060c14.129 0 24.515 9.155 24.515 23.247v294.071c0 14.105-10.387 25.709-24.515 25.709h-420.060c-14.129 0-26.465-11.618-26.465-25.709v-294.071c-0.012-14.092 12.337-23.247 26.465-23.247zM56.32 341.76h399.36v-271.36h-399.36v271.36zM340.529 246.369c-27.075 44.483-67.84 13.531-67.84 13.531-2.633-1.987-7.51-3.633-10.837-3.657h-10.899c-3.328 0-8.216 1.646-10.838 3.657 0 0-40.79 30.94-67.864-13.531-27.063-44.458-16.165-92.891-16.165-92.891 1.939-11.837 8.216-19.748 20.090-18.737 11.849 0.975 37.583 31.902 37.583 31.902 2.121 2.548 6.559 4.62 9.887 4.62l65.475 0.024c3.303 0 7.753-2.097 9.887-4.644 0 0 25.709-30.903 37.571-31.902 11.873-0.988 18.188 6.912 20.077 18.749 0.012 0.012 10.947 48.421-16.128 92.879zM235.483 228.571v-16.542h-15.055v-15.055h-18.054v15.055h-15.043v18.054h15.043v15.055h18.054v-15.055h15.055v-1.512zM296.192 194.779c-6.168 0-11.118 4.95-11.118 11.118 0 6.132 4.95 11.094 11.118 11.094 6.108 0 11.118-4.962 11.118-11.094 0-6.168-5.010-11.118-11.118-11.118zM296.192 225.316c-6.168 0-11.118 4.998-11.118 11.118 0 6.144 4.95 11.118 11.118 11.118 6.108 0 11.118-4.974 11.118-11.118 0-6.119-5.010-11.118-11.118-11.118zM323.852 208.908c-6.168 0-11.106 4.998-11.106 11.13 0 6.156 4.937 11.118 11.106 11.118 6.132 0 11.118-4.962 11.118-11.118 0.012-6.144-4.986-11.13-11.118-11.13z" />
<glyph unicode="&#xe057;" d="M483.633 161.95c-17.896 29.391-44.154 45.531-74.008 45.531-22.82 0-41.911-9.411-51.505-15.421-1.365 20.639-6.973 52.565-27.124 75.045-13.349 14.933-31.232 22.491-53.126 22.491-58.49 0-93.562 43.3-108.069 68.51v64.305c0 14.263-13.666 24.125-28.355 24.125h-116.59c-14.701 0-24.857-9.85-24.857-24.125v-428.568c0-14.287 10.155-25.844 24.857-25.844h116.59c14.702 0 28.355 11.557 28.355 25.844v336.86c21.078-27.173 56.759-56.54 108.069-56.54 17.567 0 31.159-5.656 41.606-17.31 15.702-17.542 20.772-45.117 22.248-65.268-9.289 6.375-28.892 18.262-52.444 18.262v0c-29.842 0-56.113-17.322-73.984-46.714-38.498-63.195-26.673-131.548-24.698-141.3 5.218-30.452 25.685-49.615 53.577-49.615 1.67 0 3.401-0.049 5.108 0.073 6.68 0.573 26.563 2.158 64.902 46.653h70.522c38.339-44.532 58.246-46.19 64.951-46.738 1.67-0.147 3.389-0.244 5.084-0.244 27.49 0 48.433 19.346 53.541 49.335 1.999 9.825 13.812 77.495-24.649 140.654zM133.791 4.010h-97.767v406.528h97.767v-406.528zM477.94 26.978c-2.292-14.3-9.606-24.137-23.187-24.137-0.805 0-1.67 0.036-2.536 0.11-15.202 1.268-48.14 40.887-48.14 40.887-2.743 3.279-8.436 5.937-12.69 5.937l-83.882-0.012c-4.243 0-9.923-2.67-12.666-5.925 0 0-32.951-39.631-48.128-40.887-0.865-0.073-1.707-0.11-2.536-0.11-13.605 0-20.906 9.837-23.223 24.137 0 0-13.97 62.038 20.724 118.979 14.495 23.844 32.061 30.757 47.616 30.757 21.601 0 39.315-13.531 39.315-13.531 3.34-2.56 9.558-4.791 13.812-4.791 0.024 0 0.036 0 0.061 0h13.995c4.23 0 10.484 2.243 13.873 4.827 0 0 17.688 13.519 39.29 13.519 15.543 0 33.133-6.924 47.641-30.757 34.645-56.978 20.663-119.004 20.663-119.004zM303.397 125.099v19.286h-23.162v-19.286h-19.273v-23.149h19.273v-19.273h23.162v19.273h19.261v23.149h-1.597zM435.919 126.452c-7.899 0-14.238-6.351-14.238-14.238 0-7.875 6.339-14.25 14.238-14.25 7.827 0 14.226 6.375 14.226 14.25 0 7.887-6.412 14.238-14.226 14.238zM414.683 133.229c0-7.863-6.375-14.238-14.238-14.238s-14.238 6.375-14.238 14.238c0 7.863 6.375 14.238 14.238 14.238s14.238-6.375 14.238-14.238zM414.683 94.074c0-7.863-6.375-14.238-14.238-14.238s-14.238 6.375-14.238 14.238c0 7.863 6.375 14.238 14.238 14.238s14.238-6.375 14.238-14.238zM77.19 281.893h15.433v-252.148h-15.433v252.148zM111.275 346.393c0-15.532-12.591-28.124-28.123-28.124s-28.123 12.591-28.123 28.124c0 15.532 12.592 28.123 28.123 28.123s28.124-12.591 28.124-28.123z" />
<glyph unicode="&#xe058;" d="M45.763 247.162c67.62 111.116 169.508 33.816 169.508 33.816 6.607-4.998 18.786-9.094 27.063-9.131h27.282c8.289-0.024 20.468 4.072 27.063 9.082 0 0 101.888 77.312 169.509-33.804 67.62-111.055 40.387-232.022 40.387-232.022-4.803-29.611-20.517-49.396-50.212-46.897-29.611 2.474-93.867 79.75-93.867 79.75-5.315 6.351-16.409 11.569-24.685 11.569l-163.584 0.024c-8.278 0-19.395-5.205-24.673-11.556 0 0-64.281-77.288-93.927-79.75-29.66-2.511-45.446 17.274-50.164 46.897-0.012-0.024-27.306 120.93 40.301 232.022zM308.382 202.654v-37.863h37.998v-38.010h40.923v38.010h37.986v40.863h-37.986v38.035h-40.923v-38.035h-37.998v-2.999zM156.575 118.199c15.372 0 27.745 12.41 27.745 27.757s-12.374 27.757-27.745 27.757c-15.299 0-27.794-12.41-27.794-27.757s12.495-27.757 27.794-27.757zM156.575 194.572c15.372 0 27.745 12.435 27.745 27.782 0 15.36-12.374 27.745-27.745 27.745-15.299 0-27.794-12.386-27.794-27.745s12.495-27.782 27.794-27.782zM87.43 153.575c15.36 0 27.757 12.435 27.757 27.782s-12.386 27.757-27.757 27.757c-15.299 0-27.794-12.41-27.794-27.757s12.495-27.782 27.794-27.782z" />
<glyph unicode="&#xe059;" d="M236.556 480h-195.608c-22.625 0-40.948-18.322-40.948-40.935v-429.312c0-22.601 18.323-40.935 40.948-40.935h195.596c22.626 0 40.96 18.334 40.96 40.935v429.312c0.012 22.613-18.322 40.935-40.948 40.935zM117.053 442.514h45.922c2.743 0 4.962-2.219 4.962-4.974 0-2.743-2.219-4.962-4.962-4.962h-45.922c-2.755 0-4.974 2.231-4.974 4.962 0 2.755 2.219 4.974 4.974 4.974zM139.995-7.692c-10.959 0-19.846 8.887-19.846 19.858s8.887 19.858 19.846 19.858c10.971 0 19.858-8.887 19.858-19.858 0-10.959-8.887-19.858-19.858-19.858zM246.394 53.492h-215.272v341.833h215.272v-341.833z" horiz-adv-x="278" />
<glyph unicode="&#xe05a;" d="M236.422 478.89h-195.499c-22.613 0-40.923-18.31-40.923-40.911v-429.056c0-22.601 18.31-40.923 40.923-40.923h195.487c22.614 0 40.936 18.322 40.936 40.911v429.068c0.012 22.601-18.31 40.911-40.923 40.911zM116.98 441.43h45.897c2.731 0 4.95-2.219 4.95-4.974 0-2.743-2.219-4.962-4.95-4.962h-45.897c-2.755 0-4.974 2.218-4.974 4.962 0 2.755 2.231 4.974 4.974 4.974zM139.923-8.521c-10.947 0-19.834 8.887-19.834 19.858 0 10.947 8.887 19.834 19.834 19.834 10.959 0 19.846-8.887 19.846-19.834-0.012-10.983-8.887-19.858-19.846-19.858zM246.248 52.602h-215.149v341.663h215.149v-341.663zM79.969 199.351c18.103-21.76 36.206-43.532 54.308-65.268 1.329-1.585 2.889-2.182 4.401-2.060 1.524-0.122 3.084 0.476 4.413 2.060 18.090 21.724 36.194 43.495 54.297 65.268 3.352 4.010 1.402 10.582-4.401 10.582-7.595 0-15.202 0-22.772 0 0 32.915 0 65.817 0 98.731 0 3.365-2.852 6.18-6.242 6.18-16.847 0-33.719 0-50.554 0-3.401 0-6.254-2.816-6.254-6.18 0-32.902 0-65.817 0-98.731-7.582 0-15.189 0-22.784 0-5.815 0-7.753-6.57-4.413-10.582z" horiz-adv-x="278" />
<glyph unicode="&#xe05b;" d="M232.131 80.298c0.036-0.036 0.036-0.086 0.085-0.134 5.839-5.839 13.324-8.887 20.956-9.497h5.303c7.631 0.622 15.104 3.657 20.931 9.497l137.825 137.862c13.019 13.044 13.019 34.182 0 47.214-13.019 12.995-34.145 13.019-47.165 0l-80.884-80.884v209.262c0 18.42-14.945 33.353-33.365 33.353-18.432 0-33.353-14.897-33.353-33.353v-209.262l-80.871 80.859c-13.031 13.019-34.145 13.019-47.19 0-13.031-13.044-13.031-34.194 0-47.189l137.728-137.728zM493.604 135.119h-32.463c-9.947 0-18.042-8.070-18.042-18.017v-80.579h-374.577v80.579c0 9.935-8.070 18.017-18.017 18.017h-32.487c-9.947 0-18.017-8.070-18.017-18.017v-131.096c0-9.875 7.973-17.859 17.823-17.969v-0.037h475.782c9.923 0 18.029 8.070 18.029 18.017v131.084c0 9.947-8.094 18.017-18.029 18.017z" />
<glyph unicode="&#xe05c;" d="M406.272 168.351h16.676v-128h-16.676v128zM324.51 150.516c0 65.841-53.589 119.454-119.442 119.454s-119.43-53.613-119.43-119.454c0-65.877 53.577-119.418 119.43-119.418s119.442 53.529 119.442 119.418zM205.068 47.786c-56.637 0-102.742 46.068-102.742 102.729s46.092 102.729 102.742 102.729c56.637 0 102.729-46.068 102.729-102.729s-46.092-102.729-102.729-102.729zM270.361 150.516c0-36.060-29.233-65.292-65.292-65.292s-65.292 29.233-65.292 65.292c0 36.060 29.233 65.292 65.292 65.292s65.292-29.233 65.292-65.292zM512 312.893c0 15.433-12.873 27.989-28.781 27.989h-32.414v22.248h-61.245v-22.248h-50.067v22.211c0 29.087-23.796 55.71-52.906 55.71h-165.181c-29.099 0-52.748-25.076-52.748-53.991l-0.085-8.582c-0.049-5.547 0.683-10.85 0.646-15.348h-40.448c-15.884 0-28.77-12.556-28.77-27.989v-316.952c0-15.433 12.886-27.94 28.77-27.94h454.437c15.921 0 28.794 12.507 28.794 27.953v316.94zM116.029 373.248c0 2.828 2.572 6.595 5.376 6.595h165.169c2.816 0 2.804-1.463 2.804-4.279v-56.942h-173.349c0 0-0.195 38.022 0 54.625zM365.337 6.949h-326.375v294.973h434.079v-294.973h-107.703zM444.892 243.675c0-16.791-13.612-30.403-30.403-30.403s-30.403 13.612-30.403 30.403c0 16.791 13.612 30.403 30.403 30.403s30.403-13.612 30.403-30.403z" />
<glyph unicode="&#xe05d;" d="M317.574 479.244c-52.455 0-95.159-42.679-95.171-95.147 0-18.249 5.193-35.949 14.982-51.249 0.036-0.085 0.085-0.122 0.122-0.207l64.829-100.876c3.316-5.181 9.082-8.302 15.226-8.302 6.156 0 11.898 3.121 15.214 8.302l64.829 100.864c9.887 15.36 15.092 33.158 15.092 51.481 0.012 52.456-42.654 95.135-95.123 95.135zM317.574 344.966c-21.516 0-39.010 17.505-39.010 39.010 0 21.529 17.505 39.034 39.010 39.034s39.022-17.505 39.022-39.034c0-21.516-17.53-39.010-39.022-39.010zM471.394 321.28l-30.269 8.631c-9.57 2.78-19.59-2.828-22.345-12.435-2.731-9.57 2.816-19.59 12.459-22.345l17.115-4.888v-280.211l-119.308 33.999v129.414c0 6.632-5.413 12.056-12.081 12.056-6.692 0-12.032-5.425-12.032-12.057v-129.389l-125.379-35.767v280.186l25.405 7.29c9.582 2.731 15.129 12.739 12.422 22.309-2.78 9.655-12.727 15.226-22.369 12.495l-27.501-7.851-144.47 41.204c-5.425 1.56-11.337 0.476-15.86-2.975-4.522-3.438-7.18-8.728-7.18-14.409v-317.818c0-8.082 5.364-15.202 13.081-17.433l148.7-42.399c0.719-0.256 1.512-0.414 2.292-0.536 1.073-0.231 2.28-0.353 3.438-0.353 1.085 0 2.243 0.086 3.364 0.365 0.792 0.122 1.572 0.281 2.365 0.536l143.726 40.997 144.506-41.252c1.622-0.414 3.303-0.646 4.998-0.646 3.815 0 7.729 1.268 10.849 3.633 4.522 3.438 7.229 8.801 7.229 14.47v317.805c-0.012 8.106-5.339 15.153-13.154 17.371zM155.441 8.351l-119.26 33.999v280.198l119.26-34.024v-280.173z" horiz-adv-x="485" />
<glyph unicode="&#xe05e;" d="M509.916 404.712l-1.634 10.276c-1.95 13.397-13.446 22.528-27.014 22.528h-53.943c0.134 5.486 0.219 5.607 0.219 5.802 0.268 7.412-2.462 13.934-7.607 19.298-5.156 5.34-12.252 7.668-19.675 7.668h-288.561c-7.412 0-14.519-1.926-19.675-7.265-5.144-5.364-7.887-12.849-7.607-20.261 0-0.195 0.073 0.244 0.195-5.242h-53.907c-13.568 0-25.064-9.131-27.014-22.528l-1.622-10.703c-4.425-21.784-15.433-123.806 138.679-215.466 22.589-38.205 50.688-55.674 66.195-65.353 0.378-0.256 0.768-0.439 1.171-0.707 1.609-10.825 3.084-31.11 3.462-39.997-10.094-6.717-19.59-14.445-28.257-23.040-29.879-29.623-38.388-49.7-39.79-53.431-3.157-8.387-2.012-18.493 3.096-25.832 5.083-7.387 13.47-12.459 22.442-12.459h173.849c8.948 0 17.322 5.096 22.442 12.459 5.096 7.363 6.266 17.103 3.084 25.502-1.402 3.718-9.899 23.978-39.778 53.589-8.68 8.618-18.176 16.457-28.257 23.137 0.365 8.887 1.841 29.233 3.438 40.082 0.402 0.244 0.805 0.512 1.195 0.743 15.494 9.704 43.606 27.283 66.182 65.487 154.356 91.818 143.079 194.219 138.691 215.711zM351.135 208.86c-25.637-47.591-59.77-60.489-70.705-69.193v-0.134c-5.449-3.962-7.363-53.358-7.363-59.807 0-6.425 2.816-12.142 7.29-16.116 0 0 2.646-2.060 3.108-2.329 7.936-5.144 16.884-12.569 25.99-21.613 27.161-26.941 33.463-44.373 33.463-44.373h-173.849c0 0 6.303 17.433 33.463 44.373 9.119 9.046 18.042 16.14 26.002 21.26 0.476 0.293 3.121 2.524 3.121 2.524 4.45 3.962 7.119 9.764 7.119 16.201 0 6.449-2.024 55.93-7.473 59.892v0.134c-10.922 8.704-44.958 21.589-70.583 69.193-157.903 90.868-132.12 188.367-131.84 190.281l1.828 11.081h82.579c-1.097 21.821-1.585 32.768-1.585 32.768h288.561c0 0-0.488-10.935-1.597-32.768h82.603l1.767-11.081c0.268-1.914 26.014-99.413-131.901-190.293zM456.655 392.241h-59.599c-4.327 0-7.899-3.352-8.156-7.68-2.925-46.604-7.936-63.196-16.286-90.661-3.060-10.045-6.522-21.418-10.423-36.12-0.902-3.438 0.488-7.071 3.486-8.996 1.353-0.877 2.877-1.292 4.413-1.292 1.865 0 3.718 0.621 5.229 1.841 89.759 73.716 92.307 94.757 89.514 135.302-0.305 4.279-3.877 7.607-8.18 7.607zM385.255 279.077c1.060 3.523 2.084 6.875 3.036 10.070 7.911 26.137 13.324 43.862 16.445 86.711h44.252c1.317-26.015-2.986-44.397-63.732-96.78zM139.362 293.9c-8.339 27.465-13.373 44.057-16.287 90.661-0.256 4.328-3.84 7.68-8.156 7.68h-59.611c-4.303 0-7.875-3.328-8.167-7.619-2.804-40.558-0.256-61.574 89.539-135.302 1.512-1.231 3.34-1.841 5.206-1.841 1.524 0 3.060 0.427 4.425 1.292 2.999 1.926 4.388 5.559 3.487 8.996-3.925 14.714-7.387 26.088-10.435 36.132zM62.988 375.857h44.251c3.121-42.849 8.521-60.599 16.445-86.711 0.975-3.206 1.987-6.546 3.035-10.070-60.745 52.382-65.036 70.765-63.732 96.78z" />
<glyph unicode="&#xe05f;" d="M510.086 419.389l-1.926 13.312h-92.44c1.219 22.857 1.767 37.254 1.767 37.254h-322.962c0 0 0.537-14.397 1.755-37.254h-92.441l-1.926-13.312c-0.329-2.134-29.062-112.189 147.663-213.882 28.684-53.309 68.644-67.743 79.19-77.459v-0.134c4.974-4.45 8.192-59.745 8.192-66.938 0-7.229-3.219-13.592-8.192-18.042 0 0-2.975-2.316-3.499-2.633-8.911-5.766-18.907-13.3-29.087-23.394-30.403-30.159-37.462-48.908-37.462-48.908h194.56c0 0-7.070 18.749-37.449 48.908-10.191 10.094-20.188 17.627-29.099 23.394-0.524 0.305-3.498 2.633-3.498 2.633-4.974 4.45-8.192 10.825-8.192 18.042 0 7.192 3.219 62.488 8.192 66.938v0.134c10.533 9.728 50.517 24.149 79.19 77.459 176.713 101.693 147.993 211.748 147.663 213.882zM31.39 401.567h66.694c4.522-72.448 13.799-82.201 30.196-143.689-99.035 81.298-99.718 102.851-96.89 143.689zM383.719 257.889c16.409 61.476 25.673 71.241 30.208 143.689h66.694c2.804-40.85 2.146-62.403-96.902-143.689z" />
<glyph unicode="&#xe060;" d="M155.124 206.214l111.994 65.609 17.75-22.979-112.677-66.036-17.066 23.406zM304.079 225.427l-113.262-66.34 17.054-23.394 113.945 66.767-17.737 22.967zM386.633 106.63c-34.67-22.735 0.036-0.012 0.036-0.049l-203.008-127.988c-31.488-18.749-68.974-11.276-92.075 11.825-33.389 33.377-27.55 89.99 12.703 116.090l23.113-29.671c-35.035-18.639-21.455-71.522 17.773-71.522 31.196 0 49.103 35.815 30.342 60.733 0 0-125.611 160.634-156.928 200.022-32.646 41.046-20.846 96.049 24.052 117.553l177.225 90.661c32.756 14.555 72.034 2.609 90.709-29.257 18.176-31.013 10.606-71.595-19.31-93.647l-175.177-98.986-23.126 29.83c34.986 18.7 21.346 71.485-17.835 71.485-26.575 0-52.675-32.025-27.197-64.61 30.573-39.095 154.844-197.327 154.844-197.327 11.178-13.276 17.079-29.489 17.627-45.933 0 0 124.087 78.214 143.214 90.49 19.724 12.642 23.369 36.572 8.887 53.443-0.281 0.353-96.902 118.93-96.902 118.93l32.305 19.432c0 0 71.18-87.382 96.975-119.028 24.613-30.159 16.457-79.726-18.249-102.473zM278.954 425.070c-9.082 17.372-29.209 21.967-44.459 14.873l-118.808-60.818c21.626-13.849 35.328-38.132 34.682-65.244l115.419 65.365c18.067 10.362 21.004 30.829 13.166 45.824z" horiz-adv-x="419" />
<glyph unicode="&#xe061;" d="M496.933 385.377l-79.823 79.823c-19.395 19.432-50.786 19.761-69.779 0.817 0 0-0.024-0.049-0.061-0.061v0.012l-296.875-296.851-50.395-201.118 200.923 50.408 18.785 19.066 278.004 278.101c0.024 0.024 0.024 0.024 0.049 0.049 18.956 18.944 18.59 50.359-0.829 69.754zM79.189 141.080l90.392-90.404-80.433-25.015-32.207 33.889 22.247 81.53zM152.21 140.239l-37.388 37.351 208.53 208.555 37.351-37.376-208.494-208.531zM209.335 83.103l-37.376 37.339 208.555 208.543 37.339-37.352-208.518-208.531z" />
<glyph unicode="&#xe062;" d="M187.185 260.12v-16.847h93.599v16.847c16.506 2.877 22.004 15.311 22.004 30.159v59.733c0 16.969-11.313 30.878-28.294 30.878h-10.24v25.527c0 1.853-3.462 2.011-5.315 2.011h-52.431c-1.853 0-2.816-0.159-2.816-2.011v-25.527h-11.483c-16.982 0-32.548-13.909-32.548-30.878v-59.733c0-14.836 11.008-27.245 27.526-30.159zM440.308 480h-409.892c-15.274 0-30.415-7.363-30.415-23.077v-457.716c0-15.714 15.14-31.207 30.415-31.207h409.892c15.262 0 22.138 15.494 22.138 31.207v457.716c0.012 15.714-6.875 23.077-22.138 23.077zM423.911 6.534h-385.365v434.92h385.377v-434.92zM93.599 199.229h269.775v-16.506h-269.775v16.506zM93.599 72.606h269.775v-16.518h-269.775v16.518zM77.068 133.169h308.297v-16.518h-308.297v16.518z" horiz-adv-x="463" />
<glyph unicode="&#xe063;" d="M440.296 480h-409.868c-15.274 0-30.427-7.351-30.427-23.089v-457.667c0-15.75 15.153-31.244 30.427-31.244h409.88c15.274 0 22.138 15.494 22.138 31.244v457.667c0 15.738-6.875 23.089-22.15 23.089zM423.911 6.534h-385.389v434.92h385.389v-434.92zM192.683 309.333v77.081h-11.008v16.506h-38.534v-16.506h-16.531v16.506h-38.522v-16.506h-11.008v-77.081h90.855zM242.225 397.421h137.631v-16.506h-137.631v16.506zM242.225 331.361h121.124v-16.53h-121.125v16.53zM71.558 199.217h269.775v-16.506h-269.775v16.506zM71.558 72.618h269.775v-16.531h-269.775v16.531zM71.558 265.289h308.297v-16.506h-308.297v16.506zM71.558 133.169h308.297v-16.531h-308.297v16.531z" horiz-adv-x="463" />
<glyph unicode="&#xe064;" d="M351.622 191.171v48.019l-25.563 9.204c-9.813 3.475-17.579 11.081-21.565 20.76v0.037c-3.974 9.679-3.767 20.699 0.707 30.22l11.715 24.808-33.463 33.95-24.576-11.751c-9.302-4.523-20.188-4.839-29.769-0.793v0c-9.594 4.047-17.030 11.971-20.492 21.882l-9.131 25.929h-47.348l-9.094-25.929c-3.499-9.875-10.923-17.835-20.48-21.882v0c-9.618-4.047-20.407-3.755-29.843 0.793l-24.478 11.764-33.511-33.951 11.654-24.808c4.45-9.521 4.742-20.553 0.756-30.22 0-0.036 0-0.036 0-0.036-3.962-9.679-11.8-17.262-21.553-20.761l-25.588-9.216v-48.018l25.6-9.204c9.753-3.572 17.578-11.081 21.553-20.797v0c3.974-9.692 3.706-20.7-0.756-30.22l-11.654-24.844 33.499-33.914 24.515 11.788c9.362 4.522 20.188 4.827 29.805 0.768v0c9.558-4.047 17.006-11.935 20.492-21.882l9.094-25.929h47.36l9.070 25.795c3.487 9.972 10.983 17.969 20.65 22.077 0.024 0 0.024 0 0.024 0 9.496 4.047 20.163 3.731 29.489-0.768l24.71-11.849 33.5 33.901-11.727 24.881c-4.45 9.484-4.681 20.505-0.731 30.196v0c3.974 9.716 11.861 17.225 21.565 20.797l25.563 9.204zM175.811 149.821c-35.584 0-64.475 29.233-64.475 65.353s28.891 65.353 64.475 65.353c35.633 0 64.475-29.269 64.475-65.353s-28.843-65.353-64.476-65.353zM510.476 49.981v25.539l-13.604 4.937c-5.217 1.865-9.363 5.876-11.459 10.971v0c-2.17 5.229-1.975 11.057 0.414 16.116l6.18 13.214-17.834 18.029-12.995-6.278c-4.998-2.426-10.825-2.548-15.897-0.414v0c-5.059 2.134-9.009 6.339-10.923 11.618l-4.755 13.8h-25.222l-4.779-13.8c-1.877-5.291-5.827-9.484-10.923-11.618v0c-5.156-2.134-10.899-2.012-15.86 0.414l-13.019 6.278-17.834-18.029 6.18-13.214c2.401-5.059 2.621-10.899 0.414-16.116v0c-2.084-5.096-6.229-9.13-11.471-10.971l-13.568-4.937v-25.551l13.568-4.827c5.229-1.877 9.399-5.925 11.471-11.057 0-0.024 0-0.024 0-0.024 2.182-5.132 1.987-11.020-0.414-16.079l-6.18-13.154 17.834-18.054 13.019 6.241c4.998 2.413 10.74 2.548 15.86 0.414v-0.036c5.071-2.097 9.046-6.303 10.923-11.593l4.779-13.8h25.222l4.717 13.69c1.914 5.327 5.925 9.594 10.983 11.727v0c5.132 2.134 10.837 2.036 15.738-0.353l13.080-6.303 17.871 18.054-6.168 13.166c-2.389 5.022-2.609 10.947-0.414 16.079v0c2.109 5.156 6.217 9.204 11.459 11.081l13.604 4.839zM417.060 27.977c-19.053 0-34.292 15.604-34.292 34.804 0 19.139 15.25 34.779 34.292 34.779 18.858 0 34.207-15.628 34.207-34.779 0-19.2-15.348-34.804-34.207-34.804z" />
<glyph unicode="&#xe065;" d="M0 406.857v-438.857h438.857v438.857h-438.857zM402.286 4.572h-365.714v365.714h365.714v-365.714z" />
<glyph unicode="&#xe066;" d="M404.529 135.522v-132.474h-369.42v369.481h301.092l42.13 35.048h-378.332v-439.577h439.527v202.435zM156.745 299.374l-87.016-87.406 164.388-164.34 277.882 277.748-63.574 64.646-212.431-176.494z" />
<glyph unicode="&#xe06a;" d="M306.135 334.066l23.777-23.805-132.864-132.714-23.778 23.805 132.865 132.714zM136.448 126.159l20.505-21.589 51.212 15.933-57.551 57.551zM256 480c-141.385 0-256-114.615-256-256s114.615-256 256-256c141.385 0 256 114.615 256 256s-114.615 256-256 256zM417.134 289.195c-0.024-0.012-0.024-0.012-0.036-0.024h0.012l-188.977-189.22-127.939-32.097 32.085 128.049 189.013 189.014c0.036 0.012 0.049 0.036 0.049 0.036 12.093 12.068 32.086 11.849 44.435-0.512l50.822-50.822c12.373-12.361 12.593-32.353 0.536-44.422zM233.513 141.125l-23.813 23.789 132.716 132.847 23.813-23.789-132.716-132.847z" />
<glyph unicode="&#xe070;" d="M510.196 162.146c-36.364 101.462-119.015 54.004-119.015 54.004-6.205-2.913-17.664-8.301-24.381-6.9l-5.401 1.146c-6.729 1.402-14.995 11.008-19.468 16.214 0 0-54.516 75.411-130.682-0.829-9.655-9.655-14.726-39.265-3.718-71.302 26.124-76.020 78.019-180.797 103.363-186.173 25.527-5.437 119.357 67.693 174.799 126.623 22.772 24.186 30.122 51.553 24.503 67.219zM158.184 331.495c-48.275 35.645-71.778-11.935-71.778-11.935-1.975-3.267-2.535-14.775-6.095-16.214l-2.865-1.134c-3.535-1.45-13.385 5.888-17.067 6.9 0 0-48.591 17.981-60.184-40.887-1.475-7.461 5.364-22.711 20.395-34.121 35.645-27.051 92.124-59.429 105.521-54.052 13.482 5.388 34.195 68.303 41.57 112.738 3.048 18.286-2.036 33.219-9.496 38.705z" />
<glyph unicode="&#xe071;" d="M492.215 405.833v74.167l-352.463-111.287v-221.44c0-22.589-42.191-20.077-42.191-20.077-43.13-0.914-77.849-36.096-77.849-79.397 0-44.142 35.73-79.799 79.75-79.799 0.159 0 0.317 0 0.524 0 0.097 0 0.219 0 0.378 0 32.256 0 59.404 9.825 80.701 29.159 21.833 19.858 32.963 45.214 32.963 75.081 0 31.415-0.073 98.841-0.073 98.841v142.836l204.007 67.425v-178.407c0-22.589-42.216-20.005-42.216-20.005-43.094-1-77.861-36.267-77.861-79.64 0-43.971 35.791-79.714 79.811-79.714 0.147 0 0.305 0 0.426 0 0.195 0 0.281 0 0.402 0 32.281 0 59.453 9.837 80.786 29.233 21.809 19.858 32.951 45.044 32.951 75.081 0 31.293-0.073 98.853-0.073 98.853v179.090z" />
<glyph unicode="&#xe072;" d="M412.367 162.267h4.486v-115.81h-4.486v115.81zM205.068 253.245c-56.649 0-102.729-46.068-102.729-102.717 0-56.661 46.080-102.741 102.729-102.741s102.729 46.068 102.729 102.741c0 56.649-46.080 102.717-102.729 102.717zM205.068 85.212c-36.059 0-65.304 29.233-65.304 65.305 0 36.060 29.233 65.292 65.305 65.292s65.317-29.233 65.317-65.292c0-36.060-29.245-65.305-65.317-65.305zM483.243 340.882h-32.451v22.236h-61.209v-22.236h-50.079v22.199c0 29.099-23.832 55.722-52.906 55.722h-165.181c-29.099 0-52.761-25.088-52.761-54.004l-0.109-8.582c-0.037-5.546 0.683-10.837 0.646-15.335h-40.423c-15.909 0-28.77-12.544-28.77-27.989v-316.94c0-15.457 12.873-27.953 28.77-27.953h454.461c15.909 0 28.769 12.495 28.769 27.953v316.94c0 15.445-12.885 27.989-28.757 27.989zM116.041 373.236c0 2.816 2.572 6.607 5.388 6.607h165.169c2.791 0 2.791-1.463 2.791-4.291v-56.942h-173.349c0 0-0.195 38.034 0 54.625zM205.068 31.098c-65.828 0-119.418 53.553-119.418 119.43 0 65.829 53.59 119.442 119.418 119.442 65.841 0 119.418-53.613 119.418-119.442 0-65.914-53.577-119.43-119.418-119.43zM429.044 34.267h-28.867v140.19h28.867v-140.19zM414.488 213.272c-16.798 0-30.403 13.617-30.403 30.403s13.604 30.403 30.403 30.403 30.403-13.617 30.403-30.403c0-16.786-13.604-30.403-30.403-30.403z" />
<glyph unicode="&#xe080;" d="M483.901 406.857h-352.963c-13.142 0-33.414-5.888-33.414-19.431v-394.13c0-13.531 20.273-25.295 33.414-25.295h352.963c13.142 0 3.718 11.764 3.718 25.295v394.13c0 13.543 9.423 19.431-3.718 19.431zM463.238 4.572h-341.334v365.714h341.334v-365.714zM403.675 187.428h-74.532v85.334h-73.143v-85.334h-60.013l103.85-113.115zM48.762 443.428h329.143v-12.19h36.572v29.671c0 13.531 1.036 19.091-12.118 19.091h-352.963c-13.142 0-37.206-5.559-37.206-19.091v-394.13c0-13.531 24.064-25.637 37.206-25.637h23.747v36.572h-24.381v365.714z" />
<glyph unicode="&#xe085;" d="M36.572 406.857h353.524v-24.381h36.572v43.094c0 14.483-8.192 17.859-22.26 17.859h-377.417c-14.056 0-26.989-3.377-26.989-17.859v-306.541c0-14.483 12.934-29.123 26.989-29.123h33.962v36.572h-24.381v280.381zM268.19 248.844v-128.634l75.715 64.329zM491.593 358.095h-377.405c-14.068 0-28.855-5.925-28.855-20.407v-306.541c0-14.483 14.787-26.575 28.855-26.575h377.405c14.068 0 20.407 12.093 20.407 26.575v306.541c0 14.483-6.339 20.407-20.407 20.407zM475.428 41.143h-353.524v280.381h353.524v-280.381z" />
<glyph unicode="&#xe08a;" d="M491.593 358.095h-377.405c-14.068 0-28.855-5.925-28.855-20.407v-306.541c0-14.483 14.787-26.575 28.855-26.575h377.405c14.068 0 20.407 12.093 20.407 26.575v306.541c0 14.483-6.339 20.407-20.407 20.407zM475.428 118.967c-73.143-0.476-125.135-4.705-181.248 43.557-51.651 44.422-135.704 53.846-172.276-5.546v164.547h353.524v-202.557zM459.618 247.43c0-31.731-25.723-57.454-57.454-57.454s-57.454 25.723-57.454 57.453c0 31.731 25.723 57.453 57.454 57.453s57.454-25.723 57.454-57.453zM36.572 406.857h353.524v-24.381h36.572v43.094c0 14.483-8.192 17.859-22.26 17.859h-377.417c-14.056 0-26.989-3.377-26.989-17.859v-306.541c0-14.483 12.934-29.123 26.989-29.123h33.962v36.572h-24.381v280.381z" />
<glyph unicode="&#xe100;" d="M378.88 371.743v20.803c0 26.767-22.026 51.614-48.793 51.614h-151.962c-26.757 0-48.522-23.25-48.522-49.843l-0.082-7.998c-0.056-5.094 0.691-10.071 0.65-14.223-51.046-7.977-89.21-53.161-89.21-105.549v-153.252c0-41.764 20.48-80.103 61.44-97.152v-48.143h302.080v48.144c40.96 17.039 66.56 55.373 66.56 97.152v153.252c0 52.516-46.080 97.316-92.16 105.195zM173.179 402.264c0 2.596 2.36 6.056 4.946 6.056h151.962c2.591 0 2.714-1.704 2.714-4.3v-57.139h-159.621c0 0-0.174 40.105 0 55.384zM368.64 3.84h-230.4v30.387l230.4-0.031v-30.356zM435.2 113.296c0-30.832-24.438-58.255-53.048-63.375h-260.834c-27.638 5.12-44.518 32.543-44.518 63.375v153.252c0 37.611 26.25 64.972 63.872 64.972h221.778c37.611 0 72.75-27.361 72.75-64.972v-153.252zM278.067 241.286c-1.904-1.368-2.493-4.157-1.28-6.226 1.173-2.104 5.606-4.936 7.49-3.569 7.885 5.637 57.902 17.285 67.928 0.088 0.962 0.999 1.49 3.298 0.548 5.114-12.248 23.802-64.406 11.919-74.686 4.593zM236.984 235.060c1.188 2.069 0.614 4.858-1.29 6.226-10.28 7.327-62.454 19.21-74.685-4.593-0.942-1.813-0.42-4.112 0.553-5.114 10.024 17.198 60.037 5.544 67.916-0.088 1.885-1.368 6.334 1.464 7.506 3.569zM229.519 197.964c0 11.93-8.78 21.586-19.589 21.586-10.839 0-19.605-9.656-19.605-21.586 0-11.894 8.76-21.576 19.605-21.576 10.809 0 19.589 9.683 19.589 21.576zM201.288 206.218c0 4.552 3.865 8.233 8.643 8.233 4.742 0 8.617-3.687 8.617-8.233 0-4.562-3.876-8.253-8.617-8.253-4.772 0-8.643 3.697-8.643 8.253zM303.816 219.55c-10.829 0-19.594-9.656-19.594-21.586 0-11.894 8.76-21.576 19.594-21.576 10.813 0 19.604 9.682 19.604 21.576 0 11.93-8.791 21.586-19.605 21.586zM303.816 197.964c-4.757 0-8.616 3.697-8.616 8.253 0 4.552 3.856 8.233 8.616 8.233 4.762 0 8.622-3.687 8.622-8.233 0-4.557-3.856-8.253-8.622-8.253zM305.362 133.253c-0.748 0.87-1.848 0.968-9.048-2.683-6.988-3.553-23.531-7.24-39.43-7.24-15.918 0-32.446 3.687-39.445 7.24-7.204 3.656-8.294 3.553-9.067 2.683l-0.010-0.026c-0.487-0.625 0.43-6.948 7.096-11.76 8.75-6.298 25.908-10.108 41.401-10.108h0.026c15.503 0 32.64 3.81 41.39 10.112 6.681 4.808 7.592 10.993 7.101 11.623l-0.014 0.159z" />
<glyph unicode="&#xe101;" d="M363.337 400.75v22.37c0 28.781-23.686 56.881-52.456 56.881h-163.401c-28.769 0-52.175-25.697-52.175-54.284l-0.073-8.948c-0.061-5.486 0.731-11.008 0.695-15.482-54.894-8.558-95.927-57.32-95.927-113.639v-164.791c0-44.897 22.028-86.125 66.060-104.46v-50.396h324.815v50.395c44.020 18.322 71.558 59.55 71.558 104.46v164.791c0 56.466-49.555 104.631-99.096 113.103zM142.178 434.944c0 2.791 2.536 6.51 5.315 6.51h163.401c2.791 0 2.913-3.206 2.913-5.998v-60.075h-171.63c0 0-0.195 43.142 0 59.563zM352.317 6.546h-247.722v31.281l247.722-0.012v-31.269zM423.875 122.856c0-33.158-26.246-61.257-57.027-66.767h-280.442c-29.733 5.498-47.872 33.609-47.872 66.767v164.791c0 40.448 28.221 71.229 68.669 71.229h238.458c40.448 0 78.214-30.781 78.214-71.229v-164.791zM202.752 213.882c0 12.849-9.435 23.21-21.077 23.21-11.654 0-21.077-10.374-21.077-23.21 0-12.776 9.423-23.187 21.077-23.187 11.63 0.012 21.077 10.411 21.077 23.187zM172.386 222.769c0 4.888 4.157 8.838 9.289 8.838 5.083 0 9.277-3.962 9.277-8.838 0-4.901-4.181-8.887-9.277-8.887-5.132 0-9.289 3.986-9.289 8.887zM282.636 237.105c-11.642 0-21.077-10.374-21.077-23.21 0-12.776 9.435-23.187 21.077-23.187 11.63 0 21.077 10.411 21.077 23.187 0 12.837-9.447 23.21-21.077 23.21zM282.636 213.882c-5.108 0-9.277 3.986-9.277 8.887 0 4.888 4.169 8.838 9.277 8.838 5.12 0 9.277-3.962 9.277-8.838-0.012-4.901-4.169-8.887-9.277-8.887zM181.053 234.264c-6.948 0-12.617-5.486-12.617-12.19 0-6.741 5.668-12.202 12.617-12.202s12.63 5.462 12.63 12.202c-0.012 6.705-5.681 12.19-12.63 12.19zM282.929 234.264c-6.912 0-12.617-5.486-12.617-12.19 0-6.741 5.705-12.202 12.617-12.202 6.973 0 12.642 5.462 12.642 12.202 0 6.705-5.668 12.19-12.642 12.19zM181.053 236.519c-11.739 0-21.285-10.459-21.285-23.394 0-12.959 9.521-23.43 21.285-23.43s21.26 10.471 21.26 23.43c0 12.922-9.508 23.393-21.26 23.393zM181.053 213.114c-5.169 0-9.363 4.010-9.363 8.948s4.194 8.923 9.363 8.923c5.169 0 9.375-3.987 9.375-8.923-0.024-4.925-4.218-8.948-9.375-8.948zM282.929 236.519c-11.727 0-21.26-10.459-21.26-23.394 0-12.959 9.533-23.43 21.26-23.43 11.764 0 21.297 10.471 21.297 23.43 0 12.922-9.533 23.393-21.297 23.393zM282.929 213.114c-5.132 0-9.363 4.010-9.363 8.948s4.23 8.923 9.363 8.923c5.181 0 9.399-3.987 9.399-8.923s-4.218-8.948-9.399-8.948zM142.909 264.996c-21.224-4.681-13.654-23.052-10.167-23.966 8.728 20.017 82.81 19.346 82.81 19.346 0.378 1.353 0.683 3.901 0.292 5.108 0.403-1.219-17.298 11.142-72.935-0.488zM326.303 264.923c21.101-5.034 13.239-23.272 9.74-24.137-8.387 20.2-82.432 20.797-82.432 20.797-0.378 1.353-0.646 3.901-0.195 5.084-0.463-1.183 17.469 10.874 72.887-1.743zM267.045 127.769c-4.084-4.255-23.028-10.362-39.302-9.887-11.337 0.451-25.002 2.56-30.099 12.154-5.071 9.594-3.962 9.021-2.012 10.325 1.951 1.28 8.984-9.192 32.122-9.472 23.137-0.317 32.036 7.692 36.377 9.252 4.096 1.512 10.679 1.889 10.264 0.451-1-3.486-3.267-8.546-7.351-12.825z" horiz-adv-x="463" />
<glyph unicode="&#xe102;" d="M363.337 400.75v22.37c0 28.781-23.686 56.881-52.456 56.881h-163.401c-28.769 0-52.175-25.697-52.175-54.284l-0.073-8.948c-0.061-5.486 0.731-11.008 0.695-15.482-54.894-8.558-95.927-57.32-95.927-113.639v-164.791c0-44.897 22.028-86.125 66.060-104.46v-50.396h324.803v50.395c44.057 18.322 71.57 59.55 71.57 104.46v164.791c0 56.466-49.567 104.631-99.096 113.103zM142.178 434.944c0 2.791 2.536 6.51 5.315 6.51h163.401c2.791 0 2.925-3.206 2.925-5.998v-60.075h-171.642c0 0-0.195 43.142 0 59.563zM352.329 6.546h-247.735v31.281l247.735-0.012v-31.269zM423.875 122.856c0-33.158-26.259-61.257-57.027-66.767h-280.442c-29.733 5.498-47.872 33.609-47.872 66.767v164.791c0 40.448 28.221 71.229 68.669 71.229h238.458c40.46 0 78.214-30.781 78.214-71.229v-164.791zM202.752 213.882c0 12.849-9.435 23.21-21.077 23.21-11.654 0-21.077-10.374-21.077-23.21 0-12.776 9.423-23.187 21.077-23.187 11.63 0.012 21.077 10.411 21.077 23.187zM172.386 222.769c0 4.888 4.157 8.838 9.289 8.838 5.083 0 9.277-3.962 9.277-8.838 0-4.901-4.181-8.887-9.277-8.887-5.132 0-9.289 3.986-9.289 8.887zM282.636 237.105c-11.654 0-21.077-10.374-21.077-23.21 0-12.776 9.423-23.187 21.077-23.187 11.642 0 21.077 10.411 21.077 23.187-0.012 12.837-9.435 23.21-21.077 23.21zM282.636 213.882c-5.12 0-9.277 3.986-9.277 8.887 0 4.888 4.157 8.838 9.277 8.838 5.132 0 9.277-3.962 9.277-8.838-0.012-4.901-4.157-8.887-9.277-8.887zM181.053 234.264c-6.948 0-12.617-5.486-12.617-12.19 0-6.741 5.668-12.202 12.617-12.202s12.63 5.462 12.63 12.202c-0.012 6.705-5.681 12.19-12.63 12.19zM282.941 234.264c-6.924 0-12.617-5.486-12.617-12.19 0-6.741 5.693-12.202 12.617-12.202 6.961 0 12.642 5.462 12.642 12.202 0 6.705-5.681 12.19-12.642 12.19zM181.053 236.519c-11.739 0-21.285-10.459-21.285-23.394 0-12.959 9.521-23.43 21.285-23.43s21.26 10.471 21.26 23.43c0 12.922-9.508 23.393-21.26 23.393zM181.053 213.114c-5.169 0-9.363 4.010-9.363 8.948s4.194 8.923 9.363 8.923c5.169 0 9.375-3.987 9.375-8.923-0.024-4.925-4.218-8.948-9.375-8.948zM282.941 236.519c-11.74 0-21.26-10.459-21.26-23.394 0-12.959 9.521-23.43 21.26-23.43s21.284 10.471 21.284 23.43c0 12.922-9.545 23.393-21.284 23.393zM282.941 213.114c-5.156 0-9.375 4.010-9.375 8.948s4.218 8.923 9.375 8.923c5.181 0 9.387-3.987 9.387-8.923s-4.205-8.948-9.387-8.948zM201.667 246.065c21.212 4.681 13.641 23.052 10.155 23.966-8.728-20.029-82.81-19.346-82.81-19.346-0.378-1.353-0.683-3.913-0.28-5.108-0.403 1.219 17.298-11.142 72.936 0.488zM267.264 246.589c-21.114 5.035-13.226 23.272-9.728 24.137 8.375-20.188 82.457-20.797 82.457-20.797 0.378-1.353 0.646-3.901 0.195-5.083 0.439 1.183-17.469-10.886-72.923 1.743zM201.363 131.596c4.096 4.255 23.040 10.349 39.302 9.887 11.35-0.451 25.027-2.56 30.11-12.166 5.071-9.582 3.962-8.997 2.012-10.313-1.962-1.28-8.985 9.192-32.122 9.472-23.125 0.305-32.024-7.692-36.376-9.252-4.108-1.512-10.691-1.889-10.276-0.451 1.024 3.474 3.267 8.546 7.351 12.825z" horiz-adv-x="463" />
<glyph unicode="&#xe103;" d="M237.256 224.532c0 29.542-24.034 53.571-53.571 53.571s-53.565-24.028-53.565-53.571c0-29.532 24.034-53.556 53.576-53.556 29.531 0.005 53.56 24.028 53.56 53.555zM183.69 177.762c-25.804 0-46.797 20.986-46.797 46.776 0 25.8 20.987 46.792 46.786 46.792 25.804 0 46.792-20.992 46.792-46.792 0.005-25.794-20.982-46.776-46.782-46.776zM328.336 278.113c-29.548 0-53.586-24.034-53.586-53.581 0-29.528 24.034-53.544 53.57-53.544 29.532 0 53.555 24.018 53.555 53.544 0.005 29.547-24.012 53.581-53.54 53.581zM328.32 177.772c-25.805 0-46.792 20.982-46.792 46.766 0 25.804 20.998 46.802 46.808 46.802 25.789 0 46.766-20.998 46.766-46.802 0-25.79-20.986-46.766-46.781-46.766zM473.283 254.101c-1.546 4.9-3.85 10.245-8.74 15.12-3 2.99-5.724 5.176-8.858 6.768v50.411c0 25.841-20.24 46.080-46.080 46.080h-46.080v20.48c0 15.216-9.851 40.96-46.781 40.96h-124.094c-23.925 0-44.17-20.337-44.17-43.52v-4.889c0-4.68-0.732-9.026-0.727-13.031h-45.352c-27.13 0-46.080-18.95-46.080-46.080v-50.99c-8.688-4.587-15.104-12.166-18.268-21.76-10.952-6.902-17.511-19.154-17.572-34.637-0.015-9.416-0.102-19.164-0.184-28.944-0.098-11.156-0.195-22.339-0.195-33.009 0-16.886 7.957-29.916 21.032-36.286 3.544-6.293 8.74-11.341 15.181-14.745v-45.87c0-27.13 18.95-46.080 46.080-46.080h5.484c0-15.36-0.364-46.080-0.364-46.080h296.32c0 0 0.276 25.6 0.276 46.080h5.488c27.13 0 46.080 18.95 46.080 46.080v45.327c2.683 1.387 5.401 3.21 8.028 5.611 3.394 3.103 4.962 6.462 6.738 9.789 14.976 7.235 21.074 22.288 21.074 36.552v61.44c0 13.803-5.166 27.689-18.238 35.221zM66.56 152.32h-5.544c-4.578 0-5.069 0.144-5.069 4.741 0 19.998 0.343 41.841 0.379 61.819 0.016 4.572 0.112 5.12 4.696 5.12h5.539v-71.68zM192.65 398.080c4.173 0 122.020 0 123.986 0 0.015 0 0.236 0 0.45 0 4.276 0 10.594-0.020 10.594-5.12 0-3.389 0-29.010 0-46.080h-144.077c0 16.804-0.025 41.63-0.025 43.52-0.006 2.878 4.264 7.68 9.072 7.68zM87.040 136.96h-9.794c-1.32 0-0.445 0.062-5.566 0.236v107.049c5.12 0.174 4.245 0.236 5.566 0.236h9.794v-107.52zM368.64 3.84h-225.28v30.72h225.28v-30.72zM419.84 254.72v-194.56c0-7.762-3.558-10.24-10.24-10.24h-307.2c-6.686 0-10.24 2.478-10.24 10.24v261.12c0 7.721 3.553 10.24 10.24 10.24h307.2c6.681 0 10.24-5.12 10.24-10.24v-66.56zM440.32 224v-71.68c0 0 0-8.274 0-10.24 0-5.12 0-5.12-5.279-5.12h-10.082v107.52h10.24c5.125 0 5.12 0 5.12-5.12v-15.36zM455.68 157.44c0-4.592-0.543-5.12-5.12-5.12h-5.12v71.68h5.12c4.577 0 5.12 0 5.12-5.12 0-19.978 0-41.442 0-61.44zM328.325 261.75c-20.567 0-37.218-16.655-37.218-37.218 0-20.532 16.645-37.192 37.217-37.192 20.526 0 37.176 16.661 37.176 37.192 0.005 20.562-16.65 37.217-37.176 37.217zM328.31 229.648c-5.55 0-10.087 4.373-10.087 9.754 0 5.366 4.531 9.744 10.087 9.744s10.066-4.377 10.066-9.744c0-5.386-4.512-9.754-10.066-9.754zM183.674 261.74c-20.536 0-37.176-16.65-37.176-37.208 0-20.531 16.64-37.192 37.176-37.192 20.547 0 37.208 16.661 37.208 37.192-0.006 20.558-16.66 37.208-37.208 37.208zM183.685 229.648c-5.55 0-10.066 4.373-10.066 9.754 0 5.366 4.516 9.744 10.066 9.744s10.087-4.377 10.087-9.744c0-5.386-4.532-9.754-10.087-9.754zM307.528 121.6h-103.921c-1.808 0-3.496-0.558-4.531-2.038-1.034-1.48-1.28-3.21-0.655-4.904l9.493-25.56c0.793-2.176 2.867-3.338 5.186-3.338h84.94c2.32 0 4.388 1.24 5.187 3.42l9.493 25.733c0.625 1.695 0.378 3.216-0.656 4.7-1.034 1.48-2.728 1.986-4.536 1.986zM294.18 96h-77.226l-5.432 15.36h88.090l-5.432-15.36z" />
<glyph unicode="&#xe104;" d="M283.361 240.286c7.736 5.53 56.96 17.003 66.816 0.088 0.962 0.988 1.474 3.22 0.553 5.012-12.058 23.429-63.375 11.75-73.488 4.52-1.868-1.341-2.438-4.076-1.274-6.129 1.158-2.059 5.524-4.833 7.394-3.492zM229.432 240.286c1.848-1.341 6.232 1.434 7.383 3.487 1.167 2.054 0.604 4.792-1.26 6.129-10.132 7.229-61.446 18.908-73.498-4.52-0.927-1.792-0.415-4.019 0.542-5.012 9.866 16.922 59.079 5.447 66.831-0.082zM210.196 177.674c10.655 0 19.292 9.512 19.292 21.233 0 11.724-8.637 21.223-19.292 21.223-10.66 0-19.282-9.493-19.282-21.223 0-11.714 8.622-21.233 19.282-21.233zM210.196 215.122c4.684 0 8.478-3.62 8.478-8.094 0-4.48-3.794-8.115-8.478-8.115-4.69 0-8.484 3.635-8.484 8.115-0.006 4.474 3.794 8.094 8.484 8.094zM302.587 220.13c-10.66 0-19.272-9.493-19.272-21.223 0-11.72 8.612-21.233 19.272-21.233 10.654 0 19.288 9.512 19.288 21.233-0.005 11.73-8.632 21.223-19.288 21.223zM302.587 198.912c-4.69 0-8.488 3.635-8.488 8.115 0 4.474 3.8 8.094 8.488 8.094 4.685 0 8.478-3.62 8.478-8.094 0-4.48-3.793-8.115-8.478-8.115zM304.108 135.219c-0.743 0.87-1.832 0.978-8.909-2.622-6.882-3.497-23.173-7.112-38.805-7.112-15.637 0-31.912 3.615-38.81 7.112-7.076 3.599-8.172 3.492-8.904 2.622l-0.010-0.021c-0.492-0.589 0.424-8.008 6.974-12.728 8.612-6.2 25.477-11.111 40.724-11.111 0.010 0 0.010 0 0.010 0 0.010 0 0.021 0 0.021 0 15.252 0 32.118 4.91 40.73 11.111 6.568 4.721 7.486 11.413 6.984 12.007l-0.005 0.742zM378.88 371.743v20.808c0 26.757-22.031 51.609-48.793 51.609h-151.966c-26.752 0-48.522-23.25-48.522-49.843l-0.082-7.998c-0.056-5.094 0.691-10.071 0.65-14.223-51.047-7.977-89.206-53.161-89.206-105.544v-153.257c0-41.764 20.48-80.103 61.44-97.152v-48.143h302.080v48.144c40.96 17.039 66.56 55.373 66.56 97.152v153.257c0 52.506-46.080 97.306-92.16 105.19zM173.179 402.264c0 2.596 2.36 6.056 4.941 6.056h151.967c2.591 0 2.714-1.704 2.714-4.3v-57.139h-159.621c0 0-0.179 40.105 0 55.384zM140.672 331.52h221.778c37.611 0 72.75-27.361 72.75-64.968v-18.519l-56.070-11.054c-0.231 0.046-0.774 0.107-1.024 0.128 0 0-54.933 8.617-116.337-10.936 0 0-3.538-0.978-5.284-0.978-1.756 0-5.268 0.978-5.268 0.978-61.404 19.548-116.168 10.936-116.168 10.936-0.814-0.097-4.844-0.281-5.366-0.496l-52.883 10.952v18.99c0 37.606 26.25 64.968 63.872 64.968zM376.484 227.543c0.098-0.988-2.493-2.007-5.745-2.284-3.256-0.262-5.964 0.317-6.036 1.31-0.092 0.972 2.483 1.996 5.745 2.268 3.272 0.261 5.97-0.308 6.036-1.296zM344.888 165.33c-19.865-6.385-37.668-4.019-43.602-1.418-5.94 2.601-16.63 8.212-25.108 40.596-5.688 21.734 38.482 24.786 44.964 25.493 5.064 0.548 38.81 4.72 40.627-12.995 0 0 2.964-45.308-16.88-51.676zM236.595 204.503c-8.469-32.384-19.169-37.995-25.108-40.596-5.918-2.601-23.736-4.966-43.592 1.418-19.856 6.37-16.886 51.676-16.886 51.676 1.817 17.715 35.559 13.548 40.622 12.994 6.498-0.707 50.653-3.752 44.964-25.492zM148.086 226.57c-0.082-0.994-2.78-1.572-6.047-1.31-3.251 0.281-5.832 1.296-5.75 2.284 0.072 0.983 2.78 1.556 6.036 1.296 3.262-0.27 5.837-1.294 5.76-2.268zM368.64 3.84h-230.4v30.387l230.4-0.031v-30.356zM382.152 49.92h-260.829c-27.642 5.12-44.523 32.543-44.523 63.375v115.496l52.27-9.794c0.399-1.024 2.964-1.111 2.964-1.111 5.069 0 7.67-6.553 8.582-11.176 0.917-4.634 6.359-24.899 9.252-32.625 2.882-7.716 7.787-12.851 19.174-15.969 11.392-3.118 24.617-4.158 34.75-3.118 10.132 1.039 23.23 7.93 29.168 17.264 5.934 9.318 14.812 27.827 16.793 32.62 1.982 4.788 4.444 4.68 6.62 4.68 2.182 0 4.644 0.108 6.62-4.68 1.986-4.798 10.829-23.301 16.774-32.62 5.928-9.334 18.974-16.226 29.123-17.264 10.132-1.034 23.23 0 34.627 3.118s16.092 8.253 18.969 15.969c2.882 7.726 7.921 27.991 8.832 32.625 0.911 4.618 2.658 11.176 7.726 11.176 0 0 1.459 0.092 1.88 0.988l54.276 10.138v-115.718c0-30.832-24.438-58.255-53.048-63.375z" />
<glyph unicode="&#xe105;" d="M207.37 220.58c-9.226-1.94-16.179-10.819-16.179-21.519 0-12.13 8.909-21.97 19.953-21.97 11.008 0 19.938 9.841 19.938 21.97 0 5.442-1.869 10.358-4.854 14.192 5.012-0.926 8.842-0.896 10.532-0.798 3.251 0.123 7.127 2.084 8.213 5.3 0.809 2.392-0.344 6.825-2.56 6.768-11.643-0.344-17.090 0.374-30.162 8.524-17.541 10.982-38.134 20.941-44.995 7.536-2.483-5.653-0.609-12.554 0.369-14.372 5.11 20.454 23.44 4.065 39.746-5.632zM219.91 207.452c0-4.639-3.928-8.392-8.76-8.392-4.849 0-8.792 3.748-8.792 8.392 0 4.623 3.942 8.372 8.791 8.372 4.838-0.005 8.76-3.748 8.76-8.372zM281.088 212.454c1.68-0.098 5.514-0.123 10.526 0.798-2.98-3.834-4.839-8.75-4.839-14.192 0-12.13 8.904-21.97 19.912-21.97 11.034 0 19.958 9.841 19.958 21.97 0 10.706-6.964 19.584-16.19 21.524 16.308 9.692 34.632 26.082 39.726 5.626 0.983 1.817 2.862 8.72 0.358 14.372-6.851 13.404-27.402 3.446-44.98-7.536-13.026-8.151-18.509-8.868-30.132-8.524-2.252 0.061-3.38-4.373-2.58-6.769 1.096-3.216 4.971-5.171 8.238-5.3zM306.683 215.818c4.849 0 8.781-3.743 8.781-8.372 0-4.639-3.932-8.392-8.781-8.392-4.844 0-8.76 3.748-8.76 8.392 0 4.628 3.916 8.372 8.76 8.372zM378.88 371.743v20.803c0 26.767-22.026 51.614-48.793 51.614h-151.962c-26.757 0-48.522-23.25-48.522-49.843l-0.082-7.998c-0.056-5.094 0.691-10.071 0.65-14.223-51.046-7.977-89.21-53.161-89.21-105.549v-153.252c0-41.764 20.48-80.103 61.44-97.152v-48.143h302.080v48.144c40.96 17.039 66.56 55.373 66.56 97.152v153.252c0 52.516-46.080 97.316-92.16 105.195zM173.179 402.264c0 2.596 2.36 6.056 4.946 6.056h151.962c2.591 0 2.714-1.704 2.714-4.3v-57.139h-159.621c0 0-0.174 40.105 0 55.384zM368.64 3.84h-230.4v30.387l230.4-0.031v-30.356zM435.2 113.296c0-30.832-24.438-58.255-53.048-63.375h-260.834c-27.638 5.12-44.518 32.543-44.518 63.375v153.252c0 37.611 26.25 64.972 63.872 64.972h221.778c37.611 0 72.75-27.361 72.75-64.972v-153.252zM392.966 157.123c-2.063 10.588-8.724 19.584-19.733 26.875-13.394 8.894-21.325 10.911-24.52 6.298-2.856-4.147-1.25-12.38-0.154-17.935l1.116-6.507 0.84 1.704c0.046 0.103 4.224 9.636 8.904 11.31 2.243 0.793 12.923-5.3 16.098-14.981 2.386-7.235-0.302-14.92-7.896-22.236-15.832-15.192-37.765 11.93-55.721 15.36-8.822 1.685-18.832-1.469-25.548-2.442-3.901-0.563-13.87-11.627-30.351-11.776-16.492-0.149-26.654 10.731-30.552 11.218-6.732 0.856-16.814 3.83-25.6 1.992-17.869-3.758-39.342-31.257-55.434-16.358-7.726 7.168-10.547 14.812-8.304 22.088 3.011 9.733 13.573 16.020 15.832 15.262 4.7-1.598 9.058-11.048 9.103-11.151l0.875-1.69 0.983 6.534c1.008 5.57 2.458 13.834-0.471 17.925-3.276 4.552-11.161 2.396-24.397-6.717-10.874-7.506-17.377-16.615-19.251-27.238-0.088-0.476-0.159-0.952-0.204-1.408-2.626-19.374 0.707-41.892 20.224-49.808 18.406-7.464 27.023-2.11 41.4 0.768 16.804 3.338 41.82-13.973 76.12 1.731 34.565-15.089 59.274 2.678 76.124-0.363 14.438-2.622 23.147-7.818 41.4-0.021 19.384 8.259 22.308 30.832 19.334 50.161-0.046 0.46-0.128 0.932-0.216 1.408z" />
<glyph unicode="&#xe106;" d="M210.089 218.86c-10.732 0-19.416-9.575-19.416-21.37s8.684-21.386 19.416-21.386c10.721 0 19.41 9.59 19.41 21.386s-8.689 21.37-19.41 21.37zM210.089 197.488c-4.71 0-8.55 3.651-8.55 8.166 0 4.486 3.84 8.151 8.55 8.151s8.546-3.666 8.546-8.151c0-4.516-3.834-8.166-8.546-8.166zM283.7 197.488c0-11.796 8.673-21.386 19.404-21.386 10.716 0 19.416 9.59 19.416 21.386s-8.699 21.37-19.416 21.37c-10.731 0-19.404-9.574-19.404-21.37zM311.644 205.656c0-4.516-3.834-8.166-8.54-8.166-4.721 0-8.56 3.651-8.56 8.166 0 4.486 3.84 8.151 8.56 8.151 4.705 0 8.54-3.666 8.54-8.151zM378.88 371.743v20.803c0 26.767-22.031 51.614-48.788 51.614h-151.966c-26.757 0-48.528-23.25-48.528-49.843l-0.082-7.998c-0.052-5.094 0.696-10.071 0.655-14.223-51.046-7.977-89.21-53.161-89.21-105.549v-153.252c0-41.764 20.48-80.103 61.44-97.152v-48.143h302.080v48.144c40.96 17.039 66.56 55.373 66.56 97.152v153.252c0 52.516-46.080 97.316-92.16 105.195zM173.179 402.264c0 2.596 2.36 6.056 4.946 6.056h151.966c2.591 0 2.709-1.704 2.709-4.3v-57.139h-159.621c0 0-0.179 40.105 0 55.384zM368.64 3.84h-230.4v30.387l230.4-0.031v-30.356zM435.2 113.296c0-30.832-24.438-58.255-53.048-63.375h-260.829c-27.642 5.12-44.523 32.543-44.523 63.375v153.252c0 37.611 26.25 64.972 63.872 64.972h221.778c37.611 0 72.75-27.361 72.75-64.972v-153.252zM278.63 257.495c7.716 4.081 54.195 0.947 61.184-19.102 1.034 0.727 1.776 2.846 1.162 4.894-7.89 26.256-56.253 29.722-66.376 24.72-1.853-0.921-2.76-3.517-2.033-5.719 0.733-2.248 4.229-5.806 6.063-4.792zM172.431 224.149c5.918 20.782 52.486 25.902 60.482 21.806 1.93-0.983 5.33 2.554 5.99 4.803 0.676 2.196-0.363 4.782-2.314 5.75-10.481 4.962-59.038-0.502-65.628-27.5-0.507-2.115 0.368-4.204 1.469-4.859zM351.534 157.342c-1.32 0.599-2.243 0.722-3.543 0.993-3.738 0.702-10.384 1.024-14.608 4.122-1.704 1.228-5.606-2.274-2.426-6.082 1.183-1.408 3.308-2.545 5.223-3.42l-2.714-0.635c-17.444-4.075-39.5-6.231-63.784-6.231-36.602 0-68.373 4.644-83.63 9.247l-1.669 0.507c1.255 0.594 2.432 1.305 3.2 2.161 3.164 3.543-0.716 7.301-2.401 6.19-4.219-2.744-10.814-2.606-14.566-3.016-1.305-0.18-2.196-0.236-3.523-0.752-1.628-0.738-1.822-1.786-1.966-2.422-0.107-0.702-0.041-1.27 0.041-1.88 0.348-1.832 3.63-10.506 9.262-13.373 0.963-0.491 1.633-0.286 2.069 0.317 0.451 0.61-0.784 3.394-0.6 6.098 0.061-0.021 0.107-0.067 0.168-0.082 0.762-0.18 2.042-0.476 3.65-0.829 0.768-4.628 1.27-9.493 1.72-14.238 1.413-14.904 2.877-30.315 14.147-39.864 12.042-10.214 41.62-13.86 65.29-13.86 27.827 0 50.786 4.634 61.414 12.39 9.195 6.702 11.745 21.878 14.449 37.95 0.844 5.022 1.731 10.204 2.806 15.18 1.055 0.312 2.084 0.65 3.128 0.978 0.246-2.8-1.070-5.622-0.599-6.293 0.425-0.625 1.096-0.906 2.094-0.461 5.637 2.473 8.95 10.993 9.298 12.83 0.087 0.584 0.138 1.183 0.041 1.889-0.111 0.656-0.33 1.726-1.969 2.587zM326.64 132.322c-0.491-2.918-0.988-5.848-1.526-8.699-0.322-0.716-0.666-1.392-1.009-2.007-2.586-4.541-17.556-6.558-31.524-7.434-0.732-0.041-1.444-0.067-2.166-0.118 7.122-1.162 18.216-2.007 28.908-1.449 0.63-0.998 1.29-2.457 1.752-4.413-1.3-3.231-2.846-5.816-4.808-7.25-8.678-6.328-30.418-10.42-55.383-10.42-26.614 0-50.734 4.7-58.67 11.428-1.336 1.137-2.432 2.478-3.42 3.912 0.44 4.004 1.802 6.43 2.744 7.634 12.821-0.702 24.73-0.512 34.667 1.060-1.669 0.051-3.374 0.138-5.12 0.24-15.549 0.86-32.891 3.205-36.418 9.651-1.74 3.185-2.601 6.876-2.995 10.286-0.010 0.082-0.016 0.164-0.025 0.246-0.025 0.246-0.056 0.502-0.077 0.748-0.281 3.046-0.215 5.776-0.097 7.628 19.968-4.567 49.905-7.506 78.213-7.506 21.642 0 41.641 1.674 58.414 4.87-0.522-2.827-0.992-5.644-1.458-8.408z" />
<glyph unicode="&#xe107;" d="M363.349 402.127v22.382c0 28.769-23.661 55.491-52.455 55.491h-163.401c-28.769 0-52.175-24.99-52.175-53.601l-0.097-8.595c-0.049-5.474 0.743-10.813 0.707-15.299-54.894-8.582-95.927-57.161-95.927-113.481v-164.803c0-44.922 22.028-86.125 66.060-104.448v-51.773h324.827v51.773c44.044 18.322 71.57 59.538 71.57 104.448v164.803c0 56.454-49.555 104.631-99.108 113.103zM142.166 434.956c0 2.791 2.536 6.51 5.327 6.51h163.401c2.791 0 2.901-1.829 2.901-4.62v-61.452h-171.63c0-0.012-0.183 43.118 0 59.563zM352.341 6.534h-247.735v32.671l247.747-0.024v-32.646zM423.911 124.221c0-33.158-26.282-62.635-57.063-68.132h-280.442c-29.721 5.498-47.872 34.974-47.872 68.132v164.803c0 40.423 28.221 69.863 68.669 69.863h238.482c40.423 0 78.226-29.44 78.226-69.863v-164.803zM161.024 214.918c0-12.642 9.326-22.93 20.822-22.93s20.822 10.289 20.822 22.93c0 12.666-9.326 22.918-20.822 22.918s-20.822-10.264-20.822-22.918zM191.012 223.671c0-4.839-4.12-8.753-9.167-8.753-5.059 0-9.143 3.913-9.143 8.753 0 4.815 4.084 8.765 9.143 8.765s9.167-3.95 9.167-8.765zM284.83 251.709c-13.946-11.386-19.639-9.326-32.073-12.251-2.401-0.548-3.755-5.62-2.877-7.68 1.146-2.731 5.279-3.523 8.777-2.78 1.329 0.292 3.913 0.39 7.315 0.951-0.122-0.159-0.244-0.329-0.39-0.512-2.962-3.95-4.815-8.972-4.815-14.506 0-12.642 9.289-22.93 20.809-22.93 11.483 0 20.834 10.289 20.834 22.93 0 5.546-1.865 10.557-4.827 14.506-3.145 4.206-7.582 7.156-12.678 8.058 0.865 0.561 1.707 1.060 2.572 1.731 18.029 13.605 39.302 41.033 45.007 22.102 1.048 1.962 3.048 9.106 0.39 13.763-7.315 10.837-29.293-8.046-48.043-23.382zM290.755 223.683c-0.012-4.839-4.132-8.765-9.167-8.765-5.022 0-9.155 3.925-9.155 8.765 0 4.815 4.132 8.753 9.155 8.753 5.034 0 9.155-3.938 9.167-8.753zM203.581 240.835c3.828-0.512 7.887 0.963 8.399 4.401 0.341 2.487-1.975 7.399-4.438 7.729-12.678 1.756-18.639 3.425-32.719 13.312-16.774 11.74-34.195 21.724-42.118 12.8-3.231-4.108-2.743-10.204-2.145-11.935 8.265 16.518 24.917-1.853 42.070-13.763 14.25-9.85 27.185-12.081 30.952-12.544zM318.476 168.314c-35.34-15.494-80.262-20.882-113.627-21.187-19.358-0.378-30.367 1.073-46.531 3.815-11.898 2.158-8.083-2.841-1.865-7.010-0.451-6.278-1.28-18.042-1.451-20.334-1.439 0.036-4.876 0.183-4.876 0.183l-0.22-1.829c-0.061-0.671-1.768-15.921-0.28-23.442 0.804-4.084 5.279-5.108 6.754-5.401 13.312-2.901 148.065-3.279 155.319 9.497 7.412 13.007 4.827 43.118 4.010 54.296l-0.012-0.024c9.996 6.717 16.25 17.53 2.779 11.435zM302.445 107.813c-4.23-2.072-12.276-3.743-22.503-5.034-2.134 4.401-3.743 9.911-3.743 9.911s0.536-6.998-2.17-10.606c-7.936-0.817-16.847-1.487-26.1-1.999-2.255 4.462-3.987 10.411-3.987 10.411s0.548-7.204-2.28-10.74c-7.96-0.353-16.091-0.61-23.991-0.743-2.28 4.023-3.267 8.985-3.267 8.985-0.329-3.998-1.572-6.949-2.925-9.082-9.35-0.11-18.225-0.073-25.905 0.098-0.988 3.731-0.317 8.192-0.317 8.192s-1.56-4.205-3.608-8.094c-9.375 0.256-16.53 0.743-20.102 1.389-2.243 1.5-3.401 4.73-4.023 7.51-0.159 2.901 0.049 5.791 0.195 7.607 9.619-0.646 24.186-1.268 41.447-1.268 31.597 0.012 71.753 2.134 105.594 9.875 0.231-2.243 0.548-5.437 0.671-8.339 0.147-3.523-0.853-6.253-2.986-8.070zM308.077 131.62c-33.877-8.485-76.093-10.861-108.885-10.861-13.726 0-25.746 0.378-34.852 0.865-0.061 3.048-0.122 6.924-0.147 10.582 0.415 2.389 1.316 5.559 3.219 7.363 5.73-0.805 12.081-1.426 19.054-1.743 2.694-4.327 5.047-10.594 5.047-10.594s-0.975 6.461 1.121 10.325c3.938-0.086 7.997-0.098 12.215 0 3.791 0.036 7.729 0.147 11.715 0.293 1.609-2.17 3.304-5.486 3.669-10.216 0 0 1.304 6.534 4.388 10.666 7.607 0.488 15.446 1.219 23.516 2.243 2.56-3.633 2.036-10.411 2.036-10.411s1.975 6.79 4.45 11.3c8.253 1.231 16.64 2.791 25.088 4.717 3.316-3.303 2.719-11.215 2.719-11.215s2.633 9.033 5.608 13.19c5.096 1.317 10.204 2.804 15.274 4.438 2.633-0.646 4.132-3.401 4.95-6.083 0.036-4.779-0.086-10.216-0.183-14.86z" horiz-adv-x="463" />
<glyph unicode="&#xe108;" d="M363.361 402.127v22.369c0 28.794-23.699 55.503-52.48 55.503h-163.389c-28.769 0-52.175-25.002-52.175-53.601l-0.097-8.595c-0.049-5.462 0.756-10.825 0.719-15.287-54.906-8.594-95.939-57.149-95.939-113.493v-164.803c0-44.897 22.016-86.138 66.060-104.436v-51.785h324.827v51.785c44.032 18.298 71.582 59.526 71.582 104.436v164.803c0 56.454-49.567 104.618-99.108 113.103zM142.166 434.944c0 2.791 2.548 6.522 5.327 6.522h163.389c2.791 0 2.925-1.853 2.925-4.62v-61.44h-171.642c0-0.012-0.195 43.13 0 59.538zM352.341 6.534h-247.735v32.671l247.747-0.024v-32.646zM423.911 124.221c0-33.146-26.282-62.611-57.063-68.145h-280.442c-29.721 5.534-47.872 34.999-47.872 68.145v164.803c0 40.448 28.233 69.863 68.669 69.863h238.482c40.448 0 78.226-29.416 78.226-69.863v-164.803zM160.732 214.491c0-12.764 9.411-23.113 21.004-23.113 11.606 0 21.004 10.349 21.004 23.113 0 12.775-9.399 23.113-21.004 23.113-11.593-0.012-21.004-10.338-21.004-23.113zM190.988 223.341c0-4.925-4.145-8.863-9.252-8.863s-9.24 3.925-9.24 8.863c0 4.839 4.132 8.79 9.24 8.79s9.252-3.95 9.252-8.79zM303.385 214.491c0 12.775-9.399 23.113-21.017 23.113s-21.004-10.326-21.004-23.113c0-12.764 9.387-23.113 21.004-23.113 11.606 0 21.017 10.349 21.017 23.113zM273.115 223.341c0 4.839 4.157 8.79 9.252 8.79 5.108 0 9.252-3.95 9.252-8.79 0-4.925-4.145-8.863-9.252-8.863-5.096 0.012-9.252 3.938-9.252 8.863zM206.592 245.516c3.377-0.024 6.827 2.17 8.095 4.438 1.304 2.28 0.89 6.047-1.365 6.217-5.974 0.476-18.725 2.865-32.463 7.777-18.481 6.583-40.155 11.581-47.385-2.413-0.951-1.609-0.353-4.242 0.659-5.766 5.863 8.813 26.332-0.073 44.093-5.327 13.166-3.876 24.722-4.925 28.367-4.925zM283.245 263.948c-13.738-4.9-26.466-7.302-32.451-7.777-2.28-0.183-2.682-3.95-1.402-6.217 1.268-2.268 4.742-4.462 8.131-4.438 3.633 0 15.202 1.048 28.355 4.937 17.786 5.242 38.241 14.141 44.093 5.327 1.036 1.524 1.597 4.145 0.683 5.766-7.265 13.983-28.928 8.984-47.409 2.401zM229.998 141.69c0 0 0.621 0.024 0 0.036-0.609-0.012 0-0.036 0-0.036zM289.585 160.365l3.303-3.036c-7.729-1.463-33.097-5.791-60.831-5.949-27.757 0.171-53.15 4.486-60.843 5.949l3.279 3.036c-16.262 1.829-14.482-13.397-14.482-13.397l2.682 2.487c0-0.341-0.036-0.5-0.036-0.853 0.305-9.399 0.621-31.452 17.81-39.132 15.75-5.998 51.212-5.644 51.565-5.741 0.317 0.098 35.803-0.256 51.553 5.741 17.164 7.68 17.517 29.721 17.81 39.132 0 0.353 0 0.512-0.024 0.853l2.719-2.487c0.012 0.012 1.767 15.238-14.507 13.397zM291.023 136.375c-0.134-4.132-15.262-5.741-15.702-7.51 0-2.853 13.068-0.548 12.714-1.683-1.829-5.656-3.584-7.399-7.973-8.74-11.764-4.815-47.981-5.022-48.019-5.034-0.012 0.012-36.243 0.231-47.994 5.034-4.401 1.329-6.144 3.084-8.009 8.74-0.341 1.134 12.739-1.183 12.739 1.683-0.463 1.78-15.567 3.377-15.689 7.51-0.792 3.938-0.927 7.875-0.927 10.947 10.203-1.792 33.695-5.229 57.832-5.571 32.207 0.341 49.676 3.779 59.879 5.571-0.012-3.084 1.914-7.010 1.146-10.947z" horiz-adv-x="463" />
<glyph unicode="&#xe109;" d="M378.88 371.743v20.808c0 26.757-22.031 51.609-48.788 51.609h-151.966c-26.757 0-48.528-23.25-48.528-49.843l-0.082-7.998c-0.051-5.094 0.696-10.071 0.655-14.224-51.047-7.977-89.211-53.161-89.211-105.543v-153.257c0-41.764 20.48-80.103 61.44-97.152v-48.144h302.080v48.144c40.96 17.039 66.56 55.373 66.56 97.152v153.257c0 52.505-46.080 97.305-92.16 105.19zM173.179 402.263c0 2.596 2.361 6.057 4.946 6.057h151.966c2.591 0 2.709-1.705 2.709-4.301v-57.139h-159.621c0 0-0.179 40.105 0 55.383zM368.64 3.84h-230.4v30.387l230.4-0.031v-30.356zM435.2 113.296c0-30.832-24.438-58.255-53.048-63.375h-260.828c-27.643 5.12-44.523 32.543-44.523 63.375v153.257c0 37.606 26.25 64.967 63.872 64.967h221.778c37.611 0 72.75-27.361 72.75-64.967v-153.257zM236.053 247.024c1.106 2.329 0.609 4.874-1.081 5.698-9.185 4.439-54.983 1.695-65.597-25.18-0.788-2.078-0.322-4.137 0.522-4.828 8.51 19.881 52.322 22.354 59.351 18.944 1.695-0.819 5.703 3.047 6.804 5.366zM209.541 219.807c-10.762 0-19.487-9.615-19.487-21.453s8.725-21.442 19.487-21.442c10.752 0 19.471 9.605 19.471 21.442s-8.725 21.453-19.471 21.453zM209.541 198.349c-4.741 0-8.566 3.661-8.566 8.197 0 4.521 3.825 8.182 8.566 8.182 4.731 0 8.586-3.661 8.586-8.182 0-4.536-3.856-8.197-8.586-8.197zM283.397 198.349c0-11.837 8.699-21.442 19.486-21.442 10.752 0 19.476 9.605 19.476 21.442s-8.724 21.453-19.476 21.453c-10.788 0.005-19.486-9.61-19.486-21.453zM311.429 206.546c0-4.536-3.82-8.197-8.55-8.197-4.726 0-8.591 3.661-8.591 8.197 0 4.521 3.865 8.182 8.591 8.182 4.731-0.005 8.55-3.661 8.55-8.182zM278.856 254.403c7.593 4.746 52.613 2.872 58.818-18.934 1.024 0.829 1.822 3.185 1.285 5.417-6.907 28.621-53.75 30.782-63.728 24.934-1.813-1.060-2.775-3.952-2.125-6.364 0.635-2.442 3.922-6.236 5.75-5.054zM341.714 156.401c3.548 4.413 6.748 8.853 9.508 13.072 0.149-0.399 0.42-0.829 0.476-1.214 0.317-2.452 2.586-4.188 5.033-3.861 2.447 0.333 4.173 2.596 3.85 5.048-1.382 10.035-9.733 12.247-19.702 11.648-1.433-0.082-1.813-1.367-0.574-1.92 2.386-1.096 4.398-2.427 6.154-3.825-5.959-8.673-22.267-24.161-33.808-32.144-15.257-10.614-33.782-18.887-45.23-20.101-10.988-1.152-18.601-0.179-25.314 0.246-4.162 0.24-8.555 0.118-9.067-1.746-0.973-3.492 2.734-4.716 6.165-6.046 3.655-1.387 16-4.199 24.837-4.199 0.098 0 0.179 0 0.256 0 10.793 0 21.269 4.818 31.652 9.431 7.25-4.711 12.375-11.648 17.214-18.841 6.507-9.666 13.737-20.229 26.414-20.229 2.908 0 6.082 0.63 9.6 1.879 10.271 3.661 19.082 12.498 23.582 23.588 3.891 9.615 3.87 19.722-0.057 27.689-5.238 10.675-16.154 16.63-30.991 21.524zM364.452 110.587c-3.486-8.627-10.491-15.693-18.274-18.462-11.863-4.209-16.926 2.284-25.579 15.13-4.014 5.965-8.428 12.432-14.341 17.705 2.683 3.241 8.95 7.424 15.319 8.182 7.675-1.531 16.579-5.202 25.339-14.315 0.543 12.908-11.289 18.299-18.361 20.199 1.772 3.216 5.238 8.166 9.421 9.175 13.45-4.316 22.646-9.031 26.706-17.255 2.8-5.688 2.719-13.107-0.231-20.357z" />
</font>
</defs>
</svg>
